<?xml version="1.0" encoding="utf-8"?>
<!-- Generator: Adobe Illustrator 16.0.0, SVG Export Plug-In . SVG Version: 6.00 Build 0)  -->
<!DOCTYPE svg PUBLIC "-//W3C//DTD SVG 1.1//EN" "http://www.w3.org/Graphics/SVG/1.1/DTD/svg11.dtd">
<svg version="1.1" id="Layer_1" xmlns="http://www.w3.org/2000/svg" xmlns:xlink="http://www.w3.org/1999/xlink" x="0px" y="0px"
	 width="471.77px" height="629.026px" viewBox="0 0 471.77 629.026" enable-background="new 0 0 471.77 629.026"
	 xml:space="preserve">
<g>
	<g id="XMLID_18_">
		<g>
			<path fill="#BCBCBC" d="M20.85,419.218c-6.02,28.89,8.869,57.926,34.632,67.528c2.463,0.92,5.033,1.664,7.621,2.198
				c14.58,3.051,29.54-0.2,42.137-9.14c12.524-8.889,21.208-22.355,24.451-37.912c6.447-30.922,0.411-47.812-23.918-66.964
				c-4.947-3.908-10.966-7.178-17.882-9.76c-11.873-4.43-28.907-6.171-28.907-6.171l-0.931,3.252
				c-6.375,13.33-19.892,27.999-26.992,37.983C26.509,406.624,22.215,412.662,20.85,419.218z"/>
		</g>
		<g>
			<path fill="none" stroke="#BCBCBC" stroke-width="6" stroke-miterlimit="10" d="M20.85,419.218
				c1.365-6.556,5.659-12.594,10.212-18.986c7.1-9.984,20.617-24.653,26.992-37.983l0.931-3.252c0,0,17.034,1.741,28.907,6.171
				c6.917,2.583,12.935,5.852,17.882,9.76c24.329,19.151,30.365,36.042,23.918,66.964c-3.243,15.557-11.927,29.023-24.451,37.912
				c-12.597,8.94-27.558,12.19-42.137,9.14c-2.588-0.535-5.157-1.278-7.621-2.198C29.719,477.144,14.831,448.108,20.85,419.218z"/>
		</g>
	</g>
	<g id="XMLID_17_">
		<g>
			<path fill="#E5E5E5" d="M49.069,413.838c-2.43,28.133,44.176,63.709,56.107,55.25c11.989-8.511,16.395-13.39,19.509-28.337
				c6.32-30.31,0.702-46.064-23.107-64.811c-4.664-3.674-10.642-6.925-17.266-9.405c-10.981-4.091-14.536-4.397-21.086-6.147
				C66.768,379.377,50.144,401.402,49.069,413.838z"/>
		</g>
		<g>
		</g>
	</g>
	<path fill-rule="evenodd" clip-rule="evenodd" fill="#AEAEAE" stroke="#989898" stroke-width="5" stroke-miterlimit="10" d="
		M177.462,494.221c8.176,4.086,17.523,15.994,9.072,32.909c-6.02,12.051-18.061,36.15-24.082,48.201
		c-3.074,6.154-18.814,48.021-42.1,36.387c-31.697-15.836-10.326-107.754-4.309-119.803
		C119.123,485.76,150.537,480.768,177.462,494.221z"/>
	<path fill-rule="evenodd" clip-rule="evenodd" fill="#AEAEAE" stroke="#989898" stroke-width="5" stroke-miterlimit="10" d="
		M268.648,501.942c8.176,4.084,17.523,15.992,9.072,32.907c-6.02,12.053-18.061,36.15-24.082,48.201
		c-3.074,6.154-18.814,48.023-42.098,36.387c-31.699-15.834-10.328-107.754-4.309-119.803
		C210.308,493.479,241.724,488.489,268.648,501.942z"/>
	<g>
		<path fill-rule="evenodd" clip-rule="evenodd" fill="#CDCCCC" d="M107.842,418.497c1.994,93.861,57.88,105.797,126.474,104.338
			c68.594-1.457,123.922-15.754,121.928-109.617c-1.994-93.858-78.832-105.351-126.473-104.338
			C182.13,309.891,105.848,324.637,107.842,418.497z"/>
		<path fill="#BCBCBC" d="M130.298,508.118c-25.613-16.332-38.523-45.789-39.462-90.051c-0.898-42.268,28.167-72.696,57.976-91.399
			c20.436-12.821,47.654-19.682,80.902-20.389c33.248-0.705,60.734,4.992,81.695,16.934c30.576,17.42,46.535,47.684,47.434,89.95
			c0.939,44.264-10.705,74.24-35.602,91.646c-24.359,17.027-58.594,19.982-88.871,20.625
			C204.095,526.077,155.359,524.096,130.298,508.118z M110.439,418.44c3.898,86.596,96.381,101.34,125.879,100.713
			s60.723-2.373,83.943-18.604c23.363-16.334,34.285-44.883,33.385-87.277c-1.834-86.269-68.348-102.973-123.82-101.795
			C174.351,312.656,106.561,332.238,110.439,418.44z"/>
	</g>
	<g>
		<path fill-rule="evenodd" clip-rule="evenodd" fill="#BCBCBC" stroke="#BCBCBC" stroke-width="6" stroke-miterlimit="10" d="
			M97.924,12.602c-18.99,4.467-15.949,18.247-3.064,37.403c14.488,21.532,35.296,86.812,35.134,87.04
			c21.084,53.478,104.326,61.295,132.258,60.169c12.074-0.485,32.957-8.753,33.846-10.429c2.229-4.196,6.025-12.59,6.885-18.57
			c2.275-15.793-15.693-98.324-106.418-148.869C176.753,8.303,146.779,1.105,97.924,12.602z"/>
		<g>
			<path fill="#B7B7B8" d="M367.402,421.462c-11.981,0-22.976-1.966-32.676-5.842c-21.079-8.427-23.651-9.01-31.289-10.741
				c-6.316-1.432-15.861-3.596-41.2-11.294c-53.873-16.373-80.679-58.703-87.801-92.858c-8.483-40.66-0.15-79.076,25.475-117.442
				c10.27-15.372,29.469-25.526,43.766-31.338c16.909-6.874,36.502-11.623,53.756-13.028c3.19-0.259,6.472-0.391,9.753-0.391
				c47.494,0,96.923,26.512,122.997,65.971c10.131,15.327,9.873,37.928,9.623,59.785c-0.217,19.012-0.44,38.671,6.029,53.405
				c1.553,3.535,3.208,6.715,4.809,9.79c4.573,8.783,8.523,16.369,6.715,26.195c-3.353,19.333-11.083,28.249-12.686,29.923
				c-10.881,16.629-27.243,29.08-43.823,33.335C389.124,419.938,377.871,421.462,367.402,421.462z"/>
			<g>
				<path fill="#BCBCBC" d="M307.185,141.528c44.506-0.002,93.915,24.401,120.494,64.625c18.189,27.52,1.117,80.199,15.408,112.742
					c5.988,13.635,13.529,22.23,11.32,34.236c-3.549,20.463-12.084,28.575-12.084,28.575c-10.508,16.185-26.328,28.242-42.221,32.32
					c-12.435,3.188-23.306,4.437-32.701,4.437c-13.439,0-23.865-2.552-31.562-5.628c-38.512-15.395-16.271-4.967-72.73-22.12
					c-50.703-15.409-78.303-54.952-85.736-90.6c-9.984-47.855,5.742-86.281,25.033-115.164c17.203-25.75,64.107-40.504,95.27-43.042
					C300.811,141.654,303.988,141.528,307.185,141.528 M307.191,135.528v6l-0.002-6c-3.367,0-6.73,0.135-10,0.401
					c-29.438,2.397-80.301,16.543-99.772,45.689c-11.652,17.446-19.603,34.541-24.305,52.261c-5.828,21.96-6.37,44.657-1.612,67.461
					c4.208,20.182,13.887,39.409,27.99,55.604c16.043,18.422,37.438,32.084,61.875,39.511c25.442,7.729,35.051,9.908,41.408,11.35
					c7.466,1.692,9.98,2.263,30.839,10.601c10.058,4.02,21.426,6.057,33.79,6.057c10.721,0,22.225-1.556,34.191-4.625
					c17.208-4.415,34.152-17.241,45.434-34.36c2.289-2.442,9.901-11.803,13.287-31.291c1.981-10.826-2.386-19.213-7.01-28.094
					c-1.578-3.032-3.211-6.167-4.724-9.611c-6.209-14.14-5.988-33.47-5.775-52.164c0.255-22.31,0.518-45.379-10.12-61.474
					C406.079,162.581,355.646,135.528,307.191,135.528L307.191,135.528z"/>
			</g>
		</g>
		<g>
			<g>
				<path fill="#717171" d="M457.82,338.585l-0.025,0.146c0.008-0.048,0.016-0.093,0.021-0.142
					C457.816,338.587,457.82,338.585,457.82,338.585z"/>
			</g>
		</g>
		<g>
			<path fill-rule="evenodd" clip-rule="evenodd" fill="#CDCCCC" d="M8.865,87.733C5.445,68.525,19.307,65.86,41.996,70.104
				c25.512,4.774,93.693-1.976,93.839-2.213c57.457-1.821,97.6,71.519,107.631,97.606c4.338,11.283,5.018,33.732,3.828,35.213
				c-2.971,3.709-9.174,10.517-14.324,13.677c-13.598,8.343-96.496,24.53-178.843-38.753C36.145,161.814,17.66,137.148,8.865,87.733
				z"/>
			<path fill="#BCBCBC" d="M6.08,88.23c-1.5-8.429-0.582-19.077,12.326-21.936c5.729-1.27,13.617-0.935,24.111,1.029
				c23.252,4.351,82.652-1.036,91.623-2.051l0.102-0.162l1.506-0.045c58.469-1.854,99.49,71.138,110.361,99.416
				c1.283,3.345,2.387,8.409,3.188,13.77c-1.867-0.668-3.834-1.057-5.844-1.17c-0.637-3.886-1.492-7.619-2.627-10.567
				c-5.535-14.403-18.162-38.344-35.529-58.435c-22.027-25.481-45.303-38.052-69.178-37.365c-5.266,0.749-69.46,6.881-94.644,2.17
				c-9.727-1.82-16.875-2.167-21.844-1.066c-5.104,1.131-10.041,3.845-7.98,15.422c7.24,40.681,21.699,68.86,44.201,86.151
				c76.015,58.419,148.32,46.213,162.041,43.173c1.662-0.37,3.246-0.768,4.732-1.182c0.766,1.741,1.547,3.48,2.322,5.221
				c-1.807,0.52-3.744,1.021-5.832,1.485l0,0c-14.158,3.134-88.707,15.737-166.71-44.21C28.734,159.689,13.58,130.364,6.08,88.23z"
				/>
		</g>
		<g>
			<g>
				<path fill="#E5E5E5" d="M337.552,385.033c0.895,16.993-0.385,32.825,39.244,33.075c43.119,0.273,68.582-34.244,75.227-50.654
					c3.201-7.886-8.258-3.97-21.443-6.788c-13.182-2.817-28.09-12.365-43.205-11.572
					C357.142,350.682,336.664,368.039,337.552,385.033z"/>
			</g>
		</g>
		<g>
			<g>
				<path fill="#FFFFFF" d="M309.024,342.665c-2.299,0-4.708-0.183-7.161-0.543c-13.465-1.976-28.454-13.205-38.186-28.607
					c-7.058-11.168-9.666-22.256-7.159-30.42c0.884-2.875,1.667-6.403,2.496-10.139c4.473-20.152,11.232-50.606,50.418-58.723
					c1.663-0.345,3.294-0.519,4.848-0.519c5.784,0,10.728,2.347,14.693,6.976c20.348,23.747,8.192,103.875,7.665,107.275
					l-0.077,0.493l-0.231,0.441C336.035,329.461,328.875,342.665,309.024,342.665C309.023,342.665,309.026,342.665,309.024,342.665z
					"/>
				<path fill="#969696" d="M314.28,216.714c36.582,0,19.394,110.791,19.394,110.791s-6.381,12.16-24.648,12.16
					c-2.085,0-4.324-0.158-6.727-0.511c-23.455-3.442-48.592-36.688-42.912-55.178c5.682-18.49,6.18-57.593,50.654-66.805
					C311.529,216.863,312.939,216.714,314.28,216.714 M314.28,210.714c-1.758,0-3.594,0.195-5.456,0.581
					c-17.903,3.708-31.431,12.545-40.205,26.263c-7.383,11.541-10.238,24.409-12.533,34.748c-0.815,3.675-1.586,7.147-2.435,9.907
					c-2.806,9.134-0.146,20.819,7.49,32.904c10.179,16.11,25.992,27.875,40.286,29.973c2.597,0.381,5.152,0.575,7.598,0.575
					c21.646,0,29.632-14.744,29.961-15.372l0.464-0.883l0.152-0.985c0.132-0.851,3.241-21.108,3.961-44.553
					c0.997-32.521-3.146-54.436-12.312-65.134C326.754,213.489,320.885,210.714,314.28,210.714L314.28,210.714z"/>
			</g>
			<path fill="#70391B" d="M333.673,327.505c0,0,7.363-45.665,2.494-80.175c-1.242-8.803-25.561-14.082-40.918,1.903
				c-18.971,19.745-29.168,63.323-24.029,69.618c8.416,10.308,19.938,18.666,31.078,20.302
				C325.753,342.598,333.673,327.505,333.673,327.505z"/>
			<path fill="#231F20" d="M333.673,327.505c0-0.002,6.281-38.958,3.402-72.101c-0.238-2.741-23.908-11.4-39.266,4.586
				c-18.969,19.745-26.549,58.264-21.408,64.561c8.416,10.306,14.756,12.967,25.896,14.603
				C325.753,342.598,333.673,327.505,333.673,327.505z"/>
			<path fill="#FFFFFF" d="M284.394,279.48c4.471,10.192,13.002,15.677,19.465,7.389c4.066-5.205,1.699-13.996-2.771-24.191
				c-4.467-10.189-6.09-21.032-12.141-18.381C282.898,246.949,279.929,269.289,284.394,279.48z"/>
		</g>
		<path fill="#ED97A1" d="M397.906,345.021c14.174-0.109,28.887,8.63,37.965,8.332c5.549-0.181,10.639-4.35,16.822-8.324
			c6.287-4.07,5.98,3.709,4.793,8.24c-1.84,7.01-11.887,22.084-19.746,25.1c-1.541,0.592-21.324,30.295-22.002,30.215
			c-0.779-0.094,8.02-27.775,6.619-28.346c-13.59-5.547-37.781-28.943-37.781-28.943S390.943,345.073,397.906,345.021z"/>
	</g>
</g>
</svg>
