<?xml version="1.0" encoding="utf-8"?>
<!-- Generator: Adobe Illustrator 16.0.0, SVG Export Plug-In . SVG Version: 6.00 Build 0)  -->
<!DOCTYPE svg PUBLIC "-//W3C//DTD SVG 1.1//EN" "http://www.w3.org/Graphics/SVG/1.1/DTD/svg11.dtd">
<svg version="1.1" id="Layer_1" xmlns="http://www.w3.org/2000/svg" xmlns:xlink="http://www.w3.org/1999/xlink" x="0px" y="0px"
	 width="513.452px" height="538.083px" viewBox="0 0 513.452 538.083" enable-background="new 0 0 513.452 538.083"
	 xml:space="preserve">
<g>
	<path fill-rule="evenodd" clip-rule="evenodd" fill="#AEAEAE" stroke="#989898" stroke-width="5" stroke-miterlimit="10" d="
		M233.462,498.352c0,8.791-6.227,21.954-24.414,21.954c-12.955,0-38.865,0-51.82,0c-6.617,0-49.405,4.455-49.405-20.581
		c0-34.08,42.596-41.871,49.405-55.205c5.891-11.539,38.865,0,51.82,0C215.666,444.52,233.462,469.406,233.462,498.352z"/>
	<path fill-rule="evenodd" clip-rule="evenodd" fill="#AEAEAE" stroke="#989898" stroke-width="5" stroke-miterlimit="10" d="
		M271.289,498.352c0,8.791,6.227,21.954,24.414,21.954c12.955,0,38.865,0,51.82,0c6.617,0,49.404,4.455,49.404-20.581
		c0-34.08-42.596-41.871-49.404-55.205c-5.891-11.539-38.865,0-51.82,0C289.085,444.52,271.289,469.406,271.289,498.352z"/>
	<path fill-rule="evenodd" clip-rule="evenodd" fill="#CDCCCC" stroke="#BCBCBC" stroke-width="5" stroke-miterlimit="10" d="
		M373.259,393.107c0,90.293-53.494,102.912-119.48,102.912S134.3,483.4,134.3,393.107s73.648-102.912,119.479-102.912
		S373.259,302.814,373.259,393.107z"/>
	<path fill-rule="evenodd" clip-rule="evenodd" fill="#CDCCCC" stroke="#BCBCBC" stroke-width="6" stroke-miterlimit="10" d="
		M484.052,18.929c-2.932-17.855-15.875-15.915-34.414-5.206c-20.848,12.037-82.568,27.151-82.771,26.988
		c-50.816,16.116-63.332,92.644-64.064,118.558c-0.312,11.206,6.01,31.056,7.506,31.984c3.742,2.327,11.27,6.371,16.746,7.549
		c14.469,3.104,91.975-8.284,144.5-89.026C483.025,92.141,491.591,64.865,484.052,18.929z"/>
	<path fill-rule="evenodd" clip-rule="evenodd" fill="#CDCCCC" stroke="#BCBCBC" stroke-width="6" stroke-miterlimit="10" d="
		M25.791,18.929c2.93-17.855,15.874-15.915,34.414-5.206c20.847,12.037,82.568,27.151,82.771,26.988
		c50.816,16.116,63.332,92.644,64.064,118.558c0.312,11.206-6.012,31.056-7.506,31.984c-3.744,2.327-11.27,6.371-16.746,7.549
		c-14.469,3.104-91.975-8.284-144.5-89.026C26.817,92.141,18.251,64.865,25.791,18.929z"/>
	<path fill="#B7B7B8" stroke="#BCBCBC" stroke-width="6" stroke-miterlimit="10" d="M404.103,314.061
		c0,67.191-67.303,91.178-150.322,91.178c-83.023,0-150.325-23.986-150.325-91.178c0-67.193,60.698-164.164,150.325-164.164
		C343.404,149.896,404.103,246.867,404.103,314.061z"/>
	<path fill="#E5E5E5" d="M190.16,353.646c0-19.977,11.348-37.537,28.488-47.617c9.691-5.703,21.236,3.395,33.629,3.395
		c12.051,0,23.299-9.277,32.824-3.863c17.588,10,29.293,27.797,29.293,48.086c0,19.951-11.316,33.221-28.418,43.309
		c-9.707,5.725-21.277-2.941-33.699-2.941c-12.438,0-24.021,8.658-33.736,2.918C201.46,386.842,190.16,373.582,190.16,353.646z"/>
	<path fill-rule="evenodd" clip-rule="evenodd" fill="#ED97A1" d="M284.865,303.248c-4.695-3.457-25.174,4.072-32.588,4.061
		c-7.328-0.008-27.932-7.475-32.584-4.061c-5.467,4.008,4.531,30.309,27.811,35.031c0,0.174,2.83,40.701,4.775,40.701
		s4.777-40.527,4.777-40.701C280.335,333.555,290.318,307.26,284.865,303.248z"/>
	<g>
		<path fill-rule="evenodd" clip-rule="evenodd" fill="#676767" d="M195.597,197.376c-7.414-0.578-28.672,10.42-25.156,16.973
			c0,0,18.691-4.613,36.783-3.598C212.314,211.036,200.679,197.771,195.597,197.376z"/>
		<path fill-rule="evenodd" clip-rule="evenodd" fill="#676767" d="M309.847,197.376c-5.082,0.395-16.717,13.66-11.629,13.375
			c18.092-1.016,36.783,3.598,36.783,3.598C338.517,207.796,317.259,196.798,309.847,197.376z"/>
	</g>
	<g>
		<path fill="#676767" d="M174.326,260.75c-14.918,0-37.756,21.049-35.957,27c1.275,4.215,20.219-11.217,29.781-10.85
			c24.699,0.949,41.322,16.508,41.322,13.773C209.472,278.799,199.5,260.75,174.326,260.75z"/>
		<path fill="#676767" d="M331.205,260.75c-25.174,0-35.148,18.049-35.148,29.924c0,2.734,16.623-12.824,41.322-13.773
			c9.564-0.367,28.508,15.064,29.783,10.85C368.96,281.799,346.121,260.75,331.205,260.75z"/>
	</g>
	<g>
		<g>
			<path fill="#166734" d="M397.867,386.701c-17.703,23.311-41.311,35.178-44.002,33.135c-2.689-2.043,2.408-27.969,20.111-51.279
				s35.91-41.256,44-33.136C426.066,343.543,415.57,363.391,397.867,386.701z"/>
			<path fill="#166734" d="M408.052,407.934c-29.262-0.783-53.293,10.199-53.385,13.576c-0.09,3.378,23.32,15.629,52.58,16.41
				c29.262,0.783,54.652-2.186,53.383-13.574C459.361,412.952,437.312,408.716,408.052,407.934z"/>
			<path fill="#166734" d="M395.21,383.74c-26.398,12.65-42.773,33.384-41.314,36.431c1.461,3.047,27.881,3.272,54.277-9.377
				c26.396-12.647,47.639-26.872,41.314-36.431C443.162,364.807,421.607,371.092,395.21,383.74z"/>
		</g>
		<path fill="#CD6733" d="M341.388,483.744c-25.543,12.253-123.268,41.167-138.449,9.518c-15.18-31.65,68.533-89.768,94.078-102.02
			c25.543-12.254,51.215,0.904,63.469,26.448C372.738,443.233,366.931,471.49,341.388,483.744z"/>
		<path fill="#F89939" d="M326.156,473.973c-25.545,12.253-115.557,35.257-123.217,19.289
			c-12.252-25.546,48.932-80.365,94.078-102.02c30.328-14.549,54.178,7.078,63.469,26.448S351.699,461.722,326.156,473.973z"/>
		
			<ellipse transform="matrix(0.4325 0.9016 -0.9016 0.4325 596.7977 7.5089)" fill="#CD6733" cx="292.434" cy="477.826" rx="12.395" ry="5.335"/>
		
			<ellipse transform="matrix(0.4325 0.9016 -0.9016 0.4325 562.9066 41.2254)" fill="#CD6733" cx="248.706" cy="467.763" rx="12.395" ry="5.334"/>
		
			<ellipse transform="matrix(0.4324 0.9017 -0.9017 0.4324 609.4366 -50.8056)" fill="#CD6733" cx="345.075" cy="458.69" rx="12.396" ry="5.335"/>
		<path fill="#CD6733" d="M306.699,434.95c-2.684,1.218-7.152-2.847-9.982-9.08c-2.828-6.232-2.949-12.273-0.266-13.493
			c2.68-1.217,7.15,2.851,9.979,9.084C309.259,427.693,309.38,433.733,306.699,434.95z"/>
	</g>
	<g>
		<path fill-rule="evenodd" clip-rule="evenodd" fill="#CDCCCC" d="M145.847,407.045c-6.783,17.819,1.961,37.687,36.115,50.688
			c34.156,13.002,61.395,20.683,68.174,2.86c6.787-17.817-11.691-44.469-45.848-57.468
			C170.132,390.123,152.628,389.227,145.847,407.045z"/>
		<path fill="#989898" d="M243.957,428.836c-8.707-11.847-22.578-22.023-39.055-28.655c-18.158-7.31-30.398-10.569-39.689-10.569
			c-6.531,0-11.771,1.684-15.82,5.078c2.07,0.943,3.949,2.18,6.078,3.086c2.641-1.464,5.848-2.164,9.742-2.164
			c8.371,0,20.271,3.221,37.449,10.136c15.457,6.221,28.406,15.683,36.461,26.642c7.314,9.949,9.729,20.076,6.625,27.783
			c-2.26,5.617-7.01,8.232-14.947,8.232h-0.004c-12.615,0-31.127-6.752-49.254-14.049c-10.92-4.396-19.436-9.621-25.408-15.425
			c-2.533-0.763-3.805-0.983-5.209,0.041c-1.494,1.089-0.205,2.931,0.266,3.409c6.627,6.728,16.076,12.696,28.111,17.541
			c18.688,7.521,37.857,14.482,51.494,14.482h0.004c10.41,0,17.312-4.035,20.514-11.992
			C255.21,452.734,252.529,440.498,243.957,428.836z"/>
	</g>
</g>
</svg>
