<?xml version="1.0" encoding="utf-8"?>
<!-- Generator: Adobe Illustrator 16.0.0, SVG Export Plug-In . SVG Version: 6.00 Build 0)  -->
<!DOCTYPE svg PUBLIC "-//W3C//DTD SVG 1.1//EN" "http://www.w3.org/Graphics/SVG/1.1/DTD/svg11.dtd">
<svg version="1.1" id="Layer_1" xmlns="http://www.w3.org/2000/svg" xmlns:xlink="http://www.w3.org/1999/xlink" x="0px" y="0px"
	 width="513.452px" height="405.457px" viewBox="0 0 513.452 405.457" enable-background="new 0 0 513.452 405.457"
	 xml:space="preserve">
<g>
	<path fill-rule="evenodd" clip-rule="evenodd" fill="#AEAEAE" stroke="#989898" stroke-width="5" stroke-miterlimit="10" d="
		M237.058,371.47c0,8.791-6.227,21.953-24.414,21.953c-12.955,0-38.865,0-51.82,0c-6.617,0-49.404,4.455-49.404-20.58
		c0-34.08,42.595-41.871,49.404-55.205c5.891-11.539,38.865,0,51.82,0C219.261,317.638,237.058,342.524,237.058,371.47z"/>
	<path fill-rule="evenodd" clip-rule="evenodd" fill="#AEAEAE" stroke="#989898" stroke-width="5" stroke-miterlimit="10" d="
		M274.886,371.47c0,8.791,6.227,21.953,24.414,21.953c12.955,0,38.865,0,51.82,0c6.617,0,49.404,4.455,49.404-20.58
		c0-34.08-42.596-41.871-49.404-55.205c-5.891-11.539-38.865,0-51.82,0C292.683,317.638,274.886,342.524,274.886,371.47z"/>
	<path fill-rule="evenodd" clip-rule="evenodd" fill="#CDCCCC" stroke="#BCBCBC" stroke-width="5" stroke-miterlimit="10" d="
		M375.527,256.159c0,90.295-53.494,102.913-119.48,102.913s-119.48-12.617-119.48-102.913c0-90.291,73.65-102.912,119.48-102.912
		S375.527,165.868,375.527,256.159z"/>
	<g>
		<g>
			<path fill-rule="evenodd" clip-rule="evenodd" fill="#CDCCCC" stroke="#BCBCBC" stroke-width="6" stroke-miterlimit="10" d="
				M18.584,248.934c-15.211-2.08-10.765-18.235,2.633-42.064c15.061-26.793,41.455-104.344,41.355-104.577
				c24.984-64.169,95.46-86.231,118.587-89.372c9.998-1.355,26.262,4.743,26.771,6.511c1.273,4.424,3.273,13.374,3.164,20.035
				c-0.293,17.607-26.713,114.336-109.347,186.189C83.701,241.346,57.717,254.285,18.584,248.934z"/>
		</g>
		<g>
			<path fill-rule="evenodd" clip-rule="evenodd" fill="#CDCCCC" stroke="#BCBCBC" stroke-width="6" stroke-miterlimit="10" d="
				M492.103,248.934c15.211-2.08,10.764-18.235-2.633-42.064c-15.062-26.793-41.455-104.344-41.355-104.577
				c-24.986-64.169-95.461-86.231-118.588-89.372c-9.998-1.355-26.262,4.743-26.771,6.511c-1.273,4.424-3.273,13.374-3.164,20.035
				c0.293,17.607,26.713,114.336,109.346,186.189C426.986,241.346,452.968,254.285,492.103,248.934z"/>
		</g>
		<path fill="#B7B7B8" stroke="#BCBCBC" stroke-width="6" stroke-miterlimit="10" d="M406.552,177.114
			c0,95.523-145.492,91.178-150.322,91.178c-83.023,0-150.325-23.986-150.325-91.178c0-67.195,60.698-164.164,150.325-164.164
			C345.853,12.95,406.552,109.918,406.552,177.114z"/>
		<path fill="#E5E5E5" d="M193.609,216.7c0.002-19.979,11.35-37.539,28.488-47.619c9.693-5.701,21.236,3.395,33.629,3.395
			c12.051,0,23.301-9.277,32.824-3.861c17.59,9.998,29.293,27.795,29.293,48.086c0,19.949-11.316,33.219-28.418,43.307
			c-9.707,5.725-21.277-2.939-33.699-2.939c-12.438,0-24.021,8.656-33.736,2.918C204.91,249.893,193.609,236.635,193.609,216.7z"/>
		<path fill-rule="evenodd" clip-rule="evenodd" fill="#ED97A1" d="M288.314,166.299c-4.695-3.455-25.174,4.074-32.588,4.062
			c-7.326-0.01-27.93-7.475-32.584-4.062c-5.467,4.01,4.531,30.311,27.812,35.033c0,0.174,2.828,40.699,4.773,40.699
			c1.947,0,4.777-40.525,4.777-40.699C283.785,196.608,293.769,170.311,288.314,166.299z"/>
		<g display="none">
			<g display="inline">
				<path fill="#FFFFFF" d="M184.587,180.76c-1.982,0-4.061-0.16-6.176-0.476c-11.037-1.646-23.448-10.835-31.617-23.408
					c-6.334-9.748-8.807-19.522-6.785-26.817c0.093-0.334,0.2-0.741,0.325-1.211c1.498-5.637,5.477-20.61,14.759-30.854l0.455-0.503
					l0.628-0.258c5.782-2.375,11.78-4.119,17.582-5.805c4.02-1.168,8.177-2.377,12.265-3.793c0.793-0.275,1.562-0.547,2.308-0.81
					c4.685-1.653,8.385-2.959,11.666-2.959c4.779,0,7.939,2.867,9.391,8.522c0.97,3.771,1.243,7.78,1.533,12.025
					c0.082,1.202,0.165,2.417,0.267,3.638c2.197,26.691-2.766,58.657-2.978,60.005l-0.078,0.493l-0.232,0.441
					C207.645,169.469,201.489,180.76,184.587,180.76C184.586,180.76,184.588,180.76,184.587,180.76z"/>
				<path fill="#969696" d="M199.997,86.865c3.146,0,5.291,1.617,6.485,6.268c1.17,4.553,1.271,9.801,1.715,15.164
					c2.193,26.639-2.951,59.291-2.951,59.291s-5.369,10.171-20.658,10.171c-1.774,0-3.684-0.137-5.732-0.443
					c-19.705-2.939-40.297-30.789-35.955-46.457c1.191-4.293,4.861-20.307,14.416-30.852c9.578-3.934,19.588-6.039,29.689-9.539
					C192.441,88.584,196.751,86.865,199.997,86.865 M199.997,80.865c-3.796,0-7.905,1.451-12.664,3.131
					c-0.74,0.261-1.505,0.531-2.293,0.804c-4.015,1.391-8.135,2.589-12.119,3.747c-5.877,1.708-11.954,3.475-17.884,5.911
					l-1.256,0.516l-0.911,1.006c-9.771,10.784-13.886,26.269-15.435,32.098c-0.121,0.458-0.227,0.854-0.316,1.178
					c-2.252,8.125,0.358,18.787,7.16,29.255c10.458,16.096,24.261,23.334,33.691,24.74c2.26,0.338,4.486,0.509,6.617,0.509
					c18.692,0,25.676-12.825,25.965-13.371l0.465-0.882l0.155-0.985c0.215-1.362,5.231-33.673,3.004-60.718
					c-0.1-1.208-0.182-2.409-0.263-3.597c-0.286-4.193-0.583-8.53-1.62-12.568C210.006,82.734,204.344,80.865,199.997,80.865
					L199.997,80.865z"/>
			</g>
			<path display="inline" fill="#70391B" d="M205.246,167.588c0,0,6.275-38.363,2.252-67.375c-1.025-7.4-21.451-11.885-34.391,1.521
				c-15.982,16.557-24.639,53.158-20.328,58.461c7.051,8.676,16.715,15.727,26.076,17.121
				C198.558,180.258,205.246,167.588,205.246,167.588z"/>
			<path display="inline" fill="#231F20" d="M205.246,167.588c0,0,5.355-32.727,3.002-60.586
				c-0.195-2.307-20.072-9.629-33.012,3.777c-15.979,16.557-22.426,48.912-18.115,54.213c7.051,8.678,12.373,10.93,21.734,12.324
				C198.558,180.258,205.246,167.588,205.246,167.588z"/>
			<path display="inline" fill="#FFFFFF" d="M163.925,127.131c3.736,8.574,10.895,13.203,16.342,6.248
				c3.426-4.367,1.457-11.76-2.279-20.336c-3.732-8.572-5.078-17.688-10.17-15.471C162.73,99.792,160.193,118.557,163.925,127.131z"
				/>
		</g>
		<g display="none">
			<g display="inline">
				<path fill="#FFFFFF" d="M326.684,180.76c-16.904,0-23.057-11.291-23.311-11.771l-0.232-0.44l-0.078-0.493
					c-0.212-1.348-5.175-33.314-2.978-60.004c0.101-1.213,0.183-2.421,0.264-3.616c0.29-4.253,0.564-8.271,1.533-12.048
					c1.452-5.655,4.612-8.522,9.392-8.522c3.282,0,6.981,1.306,11.666,2.959c0.746,0.264,1.516,0.535,2.31,0.811
					c4.088,1.417,8.246,2.625,12.267,3.794c5.8,1.686,11.797,3.43,17.578,5.804l0.628,0.258l0.456,0.503
					c9.289,10.251,13.265,25.229,14.762,30.867c0.124,0.465,0.23,0.867,0.321,1.198c2.022,7.293-0.449,17.066-6.782,26.814
					c-8.169,12.575-20.58,21.764-31.619,23.411C330.745,180.6,328.667,180.76,326.684,180.76z"/>
				<path fill="#969696" d="M311.274,86.865c3.245,0,7.557,1.719,12.993,3.604c10.1,3.5,20.109,5.605,29.688,9.539
					c9.555,10.545,13.227,26.559,14.416,30.852c4.344,15.668-16.25,43.518-35.953,46.457c-2.05,0.306-3.958,0.443-5.732,0.443
					c-15.291,0-20.658-10.171-20.658-10.171s-5.145-32.652-2.951-59.291c0.441-5.363,0.545-10.611,1.713-15.164
					C305.983,88.482,308.127,86.865,311.274,86.865 M311.275,80.865L311.275,80.865c-4.349,0-10.011,1.87-12.298,10.776
					c-1.038,4.045-1.334,8.389-1.62,12.59c-0.081,1.181-0.162,2.374-0.261,3.574c-2.228,27.044,2.789,59.355,3.004,60.717
					l0.155,0.984l0.465,0.882c0.288,0.546,7.271,13.371,25.965,13.371c2.13,0,4.356-0.171,6.618-0.509
					c9.431-1.407,23.233-8.646,33.691-24.744c6.801-10.468,9.409-21.129,7.158-29.25c-0.089-0.321-0.193-0.712-0.313-1.165
					c-1.548-5.831-5.66-21.32-15.438-32.112l-0.911-1.006l-1.256-0.516c-5.929-2.435-12.005-4.201-17.881-5.91
					c-3.984-1.159-8.104-2.356-12.121-3.749c-0.788-0.273-1.553-0.543-2.294-0.805C319.179,82.315,315.07,80.865,311.275,80.865
					L311.275,80.865z"/>
			</g>
			<path display="inline" fill="#70391B" d="M306.027,167.588c0,0-6.277-38.363-2.252-67.375c1.025-7.4,21.451-11.885,34.391,1.521
				c15.98,16.557,24.639,53.158,20.328,58.461c-7.051,8.676-16.717,15.727-26.076,17.121
				C312.712,180.258,306.027,167.588,306.027,167.588z"/>
			<path display="inline" fill="#231F20" d="M306.027,167.588c0,0-5.355-32.727-3.002-60.586c0.193-2.307,20.072-9.629,33.012,3.777
				c15.979,16.557,22.424,48.912,18.115,54.213c-7.053,8.678-12.375,10.93-21.734,12.324
				C312.712,180.258,306.027,167.588,306.027,167.588z"/>
			<path display="inline" fill="#FFFFFF" d="M347.345,127.131c-3.734,8.574-10.895,13.203-16.34,6.248
				c-3.428-4.367-1.457-11.76,2.279-20.336c3.732-8.572,5.078-17.688,10.168-15.471C348.542,99.792,351.08,118.557,347.345,127.131z
				"/>
		</g>
		<path fill="#676767" d="M139.011,140.772c-1.799,5.951,21.041,27,35.957,27c25.174,0,35.148-18.049,35.148-29.924
			c0-2.734-16.623,12.824-41.322,13.773C159.23,151.989,140.287,136.557,139.011,140.772z"/>
		<path fill="#676767" d="M372.085,140.772c1.799,5.951-21.039,27-35.957,27c-25.174,0-35.146-18.049-35.146-29.924
			c0-2.734,16.623,12.824,41.322,13.773C351.867,151.989,370.81,136.557,372.085,140.772z"/>
		<g>
			<path fill="#676767" d="M202.544,54.739c-0.547,0-1.367,0.176-2.18,1.014c-11.309,11.672-26.635,20.184-26.789,20.268
				l-1.359,0.748l0.389,1.504c0.865,3.355,4.738,5.205,10.902,5.205c6.867,0,16.449-2.34,19.955-6.117
				c3.229-3.479,3.613-16.449,1.844-20.506C204.503,55.012,203.23,54.739,202.544,54.739z"/>
		</g>
		<g>
			<path fill="#676767" d="M308.73,54.739c0.545,0,1.367,0.176,2.18,1.014c11.307,11.672,26.635,20.184,26.787,20.268l1.359,0.748
				l-0.387,1.504c-0.867,3.355-4.738,5.205-10.902,5.205c-6.867,0-16.451-2.34-19.957-6.117c-3.227-3.479-3.613-16.449-1.842-20.506
				C306.771,55.012,308.042,54.739,308.73,54.739z"/>
		</g>
	</g>
</g>
</svg>
