<?xml version="1.0" encoding="UTF-8" standalone="no"?>
<svg
   xmlns:dc="http://purl.org/dc/elements/1.1/"
   xmlns:cc="http://creativecommons.org/ns#"
   xmlns:rdf="http://www.w3.org/1999/02/22-rdf-syntax-ns#"
   xmlns:svg="http://www.w3.org/2000/svg"
   xmlns="http://www.w3.org/2000/svg"
   xml:space="preserve"
   enable-background="new 0 0 513.452 551.346"
   viewBox="0 0 513.452 551.346"
   height="551.346px"
   width="513.452px"
   y="0px"
   x="0px"
   id="Layer_1"
   version="1.1"><metadata
   id="metadata79"><rdf:RDF><cc:Work
       rdf:about=""><dc:format>image/svg+xml</dc:format><dc:type
         rdf:resource="http://purl.org/dc/dcmitype/StillImage" /><dc:title></dc:title></cc:Work></rdf:RDF></metadata><defs
   id="defs77" />
<g
   transform="matrix(-1,0,0,1,509.43963,0)"
   id="g72">
	<path
   style="clip-rule:evenodd;fill:#aeaeae;fill-rule:evenodd;stroke:#989898;stroke-width:5;stroke-miterlimit:10"
   id="path2"
   d="m 239.24,511.648 c 0.6,14.939 13.027,26.57 41.662,25.421 28.637,-1.148 50.646,-4.002 50.043,-18.943 -0.596,-14.939 -22.135,-28.465 -50.77,-27.314 -28.636,1.15 -41.535,5.896 -40.935,20.836 z"
   stroke-miterlimit="10" />
	<path
   style="clip-rule:evenodd;fill:#aeaeae;fill-rule:evenodd;stroke:#989898;stroke-width:5;stroke-miterlimit:10"
   id="path4"
   d="m 108.736,493.781 c -1.705,14.854 7.52,35.626 35.992,38.892 28.471,3.266 50.658,3.828 52.359,-11.025 1.705,-14.855 -17.496,-31.529 -45.969,-34.797 -17.113,-1.961 -25.935,-28.5 -32.548,-26.932 -4.39,1.041 -9.154,27.932 -9.834,33.862 z"
   stroke-miterlimit="10" />
	<g
   id="XMLID_26_">
		<g
   id="g8">
			<path
   style="fill:#bcbcbc"
   id="path6"
   d="m 9.321,325.572 c -6.01,28.89 8.869,57.926 34.642,67.527 2.454,0.92 5.032,1.664 7.611,2.208 14.589,3.041 29.549,-0.209 42.137,-9.149 12.533,-8.89 21.218,-22.355 24.451,-37.912 6.447,-30.922 0.42,-47.813 -23.908,-66.955 -4.957,-3.917 -10.966,-7.178 -17.883,-9.77 -11.882,-4.43 -28.916,-6.17 -28.916,-6.17 l -0.931,3.251 c -6.365,13.33 -19.892,27.999 -26.982,37.983 -4.552,6.393 -8.855,12.431 -10.221,18.987 z" />
		</g>
		<g
   id="g12">
			<path
   style="fill:none;stroke:#bcbcbc;stroke-width:6;stroke-miterlimit:10"
   id="path10"
   d="m 9.321,325.572 c 1.365,-6.556 5.669,-12.594 10.222,-18.986 7.09,-9.984 20.617,-24.653 26.982,-37.983 l 0.931,-3.251 c 0,0 17.034,1.741 28.916,6.17 6.917,2.592 12.926,5.852 17.883,9.77 24.329,19.142 30.355,36.032 23.908,66.955 -3.233,15.557 -11.918,29.022 -24.451,37.912 -12.588,8.94 -27.548,12.19 -42.137,9.149 C 48.996,394.764 46.417,394.02 43.964,393.1 18.19,383.498 3.311,354.461 9.321,325.572 Z"
   stroke-miterlimit="10" />
		</g>
	</g>
	<g
   id="XMLID_25_">
		<g
   id="g17">
			<path
   style="fill:#e5e5e5"
   id="path15"
   d="m 37.547,320.202 c -2.43,28.133 44.176,63.709 56.107,55.25 11.989,-8.511 16.395,-13.39 19.509,-28.337 6.32,-30.31 0.702,-46.064 -23.107,-64.811 -4.664,-3.674 -10.642,-6.925 -17.266,-9.405 -10.981,-4.091 -14.536,-4.397 -21.086,-6.147 3.543,18.989 -13.081,41.014 -14.157,53.45 z" />
		</g>
		<g
   id="g19">
		</g>
	</g>
	<g
   id="g26">
		<path
   style="clip-rule:evenodd;fill:#cdcccc;fill-rule:evenodd"
   id="path22"
   d="m 181.681,496.941 c 76.566,13.561 181.248,7.941 190.752,-81.473 C 378.865,354.95 297.517,288.8 220.954,275.237 144.39,261.676 83.253,301.755 72.408,362.976 61.564,424.197 105.121,483.378 181.681,496.941 Z" />
		<path
   style="fill:#bcbcbc"
   id="path24"
   d="M 181.208,499.609 C 144.14,493.043 112.509,475.252 92.142,449.513 72.218,424.331 64.263,393.431 69.74,362.503 c 4.773,-26.941 18.857,-50.042 40.732,-66.803 22.039,-16.888 50.091,-25.813 81.123,-25.813 9.744,0 19.783,0.902 29.832,2.683 37.742,6.687 78.186,26.554 108.186,53.148 15.334,13.588 27.117,28.037 35.027,42.946 8.562,16.145 12.094,31.988 10.488,47.092 -3.385,31.846 -18.795,55.658 -45.805,70.777 -22.15,12.396 -51.457,18.682 -87.111,18.682 -19.474,-10e-4 -39.998,-1.887 -61.004,-5.606 z M 95.875,319.534 c -34.66,65.217 30.754,158.45 143.345,166.077 34.637,2.346 65.256,3.254 86.586,-8.686 25.387,-14.211 40.744,-31.746 43.932,-61.742 2.881,-27.098 -13.053,-58.229 -43.717,-85.411 -29.285,-25.957 -68.74,-45.348 -105.539,-51.865 -9.74,-1.727 -19.457,-2.601 -28.887,-2.601 -45.265,0.001 -79.583,13.859 -95.72,44.228 z" />
	</g>
	<path
   style="clip-rule:evenodd;fill:#bcbcbc;fill-rule:evenodd;stroke:#bcbcbc;stroke-width:6;stroke-miterlimit:10"
   id="path28"
   d="m 161.99,12.905 c -18.713,3.678 -16.238,17.248 -4.346,36.422 13.373,21.559 31.34,86.072 31.174,86.29 18.662,52.995 99.688,63.64 127.012,63.55 11.811,-0.039 32.508,-7.359 33.436,-8.963 2.33,-4.02 6.338,-12.082 7.396,-17.891 C 359.455,156.969 344.885,75.705 258.094,23.055 239.142,11.556 210.125,3.44 161.99,12.905 Z"
   stroke-miterlimit="10" />
	<g
   id="g36">
		<path
   style="fill:#b7b7b8"
   id="path30"
   d="m 414.484,422.146 c -13.313,0 -25.353,-2.344 -35.782,-6.969 -20.276,-8.987 -22.768,-9.649 -30.161,-11.616 -6.118,-1.626 -15.363,-4.085 -39.841,-12.522 -52.055,-17.946 -76.725,-60.286 -82.454,-93.924 -6.819,-40.043 2.713,-77.282 29.141,-113.845 10.596,-14.658 29.728,-23.89 43.911,-29.054 16.771,-6.106 36.089,-10.037 52.997,-10.786 1.685,-0.075 3.404,-0.112 5.113,-0.112 22.513,0 46.85,6.59 68.527,18.558 22.67,12.514 41.245,29.956 53.719,50.438 9.352,15.355 8.282,37.432 7.249,58.782 -0.898,18.556 -1.827,37.743 3.954,52.354 1.389,3.507 2.891,6.672 4.343,9.732 4.155,8.756 7.743,16.318 5.619,25.875 -3.974,18.754 -11.847,27.201 -13.489,28.797 -11.239,15.861 -27.685,27.44 -44.046,30.999 -10.053,2.186 -19.743,3.293 -28.8,3.293 z" />
		<g
   id="g34">
			<path
   style="fill:#bcbcbc"
   id="path32"
   d="m 357.408,146.317 c 44.619,-0.001 94.36,25.971 119.684,67.557 16.771,27.538 -1.807,78.376 10.977,110.68 5.357,13.535 12.412,22.203 9.822,33.852 -4.207,19.855 -12.838,27.473 -12.838,27.473 -10.85,15.43 -26.736,26.635 -42.406,30.043 -10.546,2.293 -19.91,3.225 -28.162,3.225 -15.067,0 -26.435,-3.105 -34.566,-6.711 -37.061,-16.428 -15.715,-5.438 -70.24,-24.232 -48.969,-16.883 -74.498,-56.504 -80.475,-91.592 -8.021,-47.104 8.727,-84.068 28.615,-111.584 17.732,-24.53 64.08,-37.248 94.609,-38.6 1.651,-0.074 3.313,-0.111 4.98,-0.111 m 0.003,-6 v 6 -6 c -1.758,0 -3.522,0.039 -5.249,0.115 -28.865,1.278 -79.105,13.272 -99.206,41.079 -12.021,16.631 -20.411,33.055 -25.65,50.209 -6.491,21.259 -7.844,43.43 -4.018,65.897 3.388,19.889 12.158,39.041 25.363,55.386 15.021,18.593 35.447,32.726 59.07,40.871 24.581,8.474 33.889,10.948 40.049,12.586 7.223,1.921 9.656,2.568 29.716,11.46 10.815,4.795 23.263,7.226 36.998,7.226 9.271,0 19.175,-1.131 29.437,-3.361 16.994,-3.696 34.036,-15.628 45.693,-31.966 2.347,-2.329 10.127,-11.226 14.141,-30.143 2.333,-10.548 -1.639,-18.919 -5.845,-27.781 -1.432,-3.016 -2.911,-6.135 -4.263,-9.55 -5.544,-14.009 -4.631,-32.868 -3.748,-51.105 1.056,-21.802 2.147,-44.346 -7.683,-60.487 -12.744,-20.927 -31.704,-38.737 -54.83,-51.503 -22.114,-12.209 -46.966,-18.933 -69.975,-18.933 z" />
		</g>
	</g>
	<g
   id="g42">
		<g
   id="g40">
			<path
   style="fill:#e5e5e5"
   id="path38"
   d="m 381.248,383.947 c 0,16.564 -2.049,31.889 36.461,34.154 41.9,2.467 68.412,-29.787 75.713,-45.4 3.508,-7.502 -7.83,-4.281 -20.502,-7.693 -12.67,-3.41 -26.674,-13.452 -41.406,-13.452 -29.47,0 -50.266,15.826 -50.266,32.391 z" />
		</g>
	</g>
	<g
   id="g48">
		<g
   id="g46">
			<path
   style="fill:#717171"
   id="path44"
   d="m 501.746,344.318 -0.027,0.143 c 0.008,-0.046 0.018,-0.091 0.023,-0.138 0,-0.002 0.004,-0.005 0.004,-0.005 z" />
		</g>
	</g>
	<g
   id="g54">
		<path
   style="clip-rule:evenodd;fill:#cdcccc;fill-rule:evenodd"
   id="path50"
   d="m 72.287,83.075 c -2.646,-18.886 10.986,-20.989 32.996,-16.022 24.748,5.584 91.587,1.456 91.742,1.229 56.184,0.295 92.748,73.381 101.602,99.227 3.828,11.178 3.682,33.129 2.467,34.531 -3.035,3.518 -9.34,9.943 -14.484,12.844 -13.584,7.658 -95.143,20.475 -173.289,-44.314 C 96.254,156.421 79.09,131.658 72.287,83.075 Z" />
		<path
   style="fill:#bcbcbc"
   id="path52"
   d="m 69.549,83.459 c -1.164,-8.286 0.119,-18.655 12.832,-20.981 5.641,-1.032 13.334,-0.418 23.512,1.877 22.555,5.09 80.771,1.975 89.568,1.309 l 0.105,-0.154 1.473,0.009 c 57.178,0.301 94.607,73.079 104.205,101.094 1.135,3.314 2.027,8.302 2.615,13.565 -1.799,-0.72 -3.705,-1.169 -5.664,-1.353 -0.482,-3.819 -1.182,-7.496 -2.184,-10.418 -4.887,-14.268 -16.355,-38.11 -32.594,-58.362 -20.594,-25.684 -42.875,-38.803 -66.221,-38.996 -5.17,0.542 -68.095,4.213 -92.523,-1.298 -9.436,-2.13 -16.404,-2.728 -21.297,-1.833 -5.027,0.921 -9.949,3.395 -8.354,14.775 5.604,39.998 18.707,68.045 40.062,85.748 72.138,59.809 143.205,50.498 156.716,48.023 1.635,-0.301 3.197,-0.633 4.664,-0.982 0.686,1.729 1.387,3.455 2.08,5.184 -1.781,0.442 -3.693,0.861 -5.75,1.238 v 0 c -13.943,2.553 -87.215,12.17 -161.242,-49.204 -22.46,-18.625 -36.2,-47.815 -42.003,-89.241 z" />
	</g>
	<g
   id="g68">
		<g
   id="g60">
			<path
   style="fill:#ffffff"
   id="path56"
   d="m 357.819,343.024 c -2.73,0 -5.605,-0.276 -8.546,-0.819 -13.099,-2.42 -27.352,-13.942 -36.311,-29.354 -6.5,-11.181 -8.65,-22.126 -5.899,-30.029 0.966,-2.774 1.858,-6.191 2.803,-9.81 5.103,-19.539 12.812,-49.065 51.422,-55.583 1.364,-0.23 2.705,-0.347 3.987,-0.347 5.866,0 10.795,2.368 14.649,7.038 19.451,23.569 4.552,102.127 3.907,105.459 l -0.095,0.49 -0.247,0.433 c -0.292,0.511 -7.385,12.522 -25.67,12.522 0,0 10e-4,0 0,0 z" />
			<path
   style="fill:#969696"
   id="path58"
   d="m 365.275,220.083 c 36.654,0 15.611,108.928 15.611,108.928 0,0 -6.31,11.013 -23.067,11.013 -2.44,0 -5.104,-0.233 -8.001,-0.769 -22.785,-4.21 -46.137,-37.59 -39.922,-55.446 6.219,-17.855 8.117,-56.031 51.891,-63.421 1.218,-0.206 2.378,-0.305 3.488,-0.305 m 0,-6 c -1.448,0 -2.958,0.131 -4.487,0.389 -17.658,2.981 -31.219,11.142 -40.307,24.254 -7.642,11.025 -10.899,23.503 -13.518,33.529 -0.929,3.559 -1.807,6.92 -2.733,9.581 -3.084,8.859 -0.903,20.41 6.139,32.524 9.38,16.135 24.437,28.223 38.359,30.795 3.119,0.577 6.179,0.869 9.091,0.869 20.005,0 27.945,-13.458 28.273,-14.03 l 0.496,-0.866 0.188,-0.979 c 0.161,-0.834 3.964,-20.689 5.499,-43.698 2.133,-31.972 -1.244,-53.585 -10.038,-64.24 -4.388,-5.318 -10.253,-8.128 -16.962,-8.128 z" />
		</g>
		<path
   style="fill:#70391b"
   id="path62"
   d="m 380.886,329.011 c 0,0 8.84,-44.338 5.33,-78.223 -0.895,-8.644 -24.457,-14.678 -40.035,0.382 -19.242,18.601 -30.779,60.798 -25.984,67.133 7.848,10.371 18.799,18.952 29.621,20.952 22.785,4.212 31.068,-10.244 31.068,-10.244 z" />
		<path
   style="fill:#231f20"
   id="path64"
   d="m 380.886,329.011 c 0,0 7.541,-37.824 5.928,-70.303 -0.133,-2.685 -22.941,-11.998 -38.521,3.061 -19.24,18.602 -28.035,55.951 -23.242,62.287 7.848,10.371 13.945,13.199 24.768,15.199 22.784,4.212 31.067,-10.244 31.067,-10.244 z" />
		<path
   style="fill:#ffffff"
   id="path66"
   d="m 334.488,280.321 c 3.994,10.117 12.131,15.783 18.744,7.921 4.158,-4.939 2.164,-13.61 -1.832,-23.729 -3.996,-10.115 -5.189,-20.764 -11.197,-18.393 -6.004,2.372 -9.711,24.086 -5.715,34.201 z" />
	</g>
	<path
   style="fill:#ed97a1"
   id="path70"
   d="m 442.359,347.991 c 13.834,0.746 27.662,10.159 36.535,10.415 5.424,0.158 10.641,-3.604 16.912,-7.11 6.381,-3.591 5.613,3.981 4.18,8.329 -2.217,6.729 -12.926,20.83 -20.775,23.299 -1.537,0.482 -22.625,28.271 -23.281,28.152 -0.754,-0.135 9.492,-26.613 8.164,-27.254 -12.924,-6.23 -35.117,-30.513 -35.117,-30.513 0,0 6.585,-5.686 13.382,-5.318 z" />
</g>
</svg>