<?xml version="1.0" encoding="utf-8"?>
<!-- Generator: Adobe Illustrator 16.0.0, SVG Export Plug-In . SVG Version: 6.00 Build 0)  -->
<!DOCTYPE svg PUBLIC "-//W3C//DTD SVG 1.1//EN" "http://www.w3.org/Graphics/SVG/1.1/DTD/svg11.dtd">
<svg version="1.1" id="Layer_1" xmlns="http://www.w3.org/2000/svg" xmlns:xlink="http://www.w3.org/1999/xlink" x="0px" y="0px"
	 width="483.137px" height="568.397px" viewBox="0 0 483.137 568.397" enable-background="new 0 0 483.137 568.397"
	 xml:space="preserve">
<g>
	<path fill-rule="evenodd" clip-rule="evenodd" fill="#AEAEAE" stroke="#989898" stroke-width="5" stroke-miterlimit="10" d="
		M219.244,514.742c0,8.791-6.227,21.953-24.414,21.953c-12.955,0-38.865,0-51.82,0c-6.617,0-49.404,4.455-49.404-20.58
		c0-34.08,42.595-41.871,49.404-55.205c5.891-11.539,38.865,0,51.82,0C201.447,460.91,219.244,485.796,219.244,514.742z"/>
	<path fill-rule="evenodd" clip-rule="evenodd" fill="#AEAEAE" stroke="#989898" stroke-width="5" stroke-miterlimit="10" d="
		M257.072,514.742c0,8.791,6.227,21.953,24.414,21.953c12.955,0,38.865,0,51.82,0c6.617,0,49.404,4.455,49.404-20.58
		c0-34.08-42.596-41.871-49.404-55.205c-5.891-11.539-38.865,0-51.82,0C274.869,460.91,257.072,485.796,257.072,514.742z"/>
	<path fill-rule="evenodd" clip-rule="evenodd" fill="#CDCCCC" stroke="#BCBCBC" stroke-width="5" stroke-miterlimit="10" d="
		M359.042,409.498c0,90.293-53.494,102.912-119.48,102.912s-119.479-12.619-119.479-102.912
		c0-90.293,73.648-102.913,119.479-102.913S359.042,319.204,359.042,409.498z"/>
	<path fill-rule="evenodd" clip-rule="evenodd" fill="#CDCCCC" stroke="#BCBCBC" stroke-width="6" stroke-miterlimit="10" d="
		M468.867,35.402c-2.93-17.855-15.873-15.915-34.414-5.206c-20.846,12.037-82.568,27.151-82.77,26.988
		c-50.818,16.116-63.334,92.644-64.064,118.558c-0.314,11.206,6.01,31.056,7.504,31.984c3.744,2.327,11.27,6.371,16.748,7.549
		c14.469,3.104,91.973-8.284,144.5-89.026C467.841,108.614,476.408,81.339,468.867,35.402z"/>
	<path fill-rule="evenodd" clip-rule="evenodd" fill="#CDCCCC" stroke="#BCBCBC" stroke-width="6" stroke-miterlimit="10" d="
		M10.606,35.402c2.93-17.855,15.874-15.915,34.414-5.206c20.847,12.037,82.569,27.151,82.77,26.988
		c50.818,16.116,63.334,92.644,64.064,118.558c0.314,11.206-6.01,31.056-7.504,31.984c-3.744,2.327-11.27,6.371-16.748,7.549
		c-14.469,3.104-91.974-8.284-144.5-89.026C11.633,108.614,3.066,81.339,10.606,35.402z"/>
	<path fill="#B7B7B8" stroke="#BCBCBC" stroke-width="6" stroke-miterlimit="10" d="M389.884,330.45
		c0,67.192-67.303,91.178-150.322,91.178c-83.021,0-150.324-23.986-150.324-91.178c0-67.193,60.697-164.164,150.324-164.164
		C329.187,166.286,389.884,263.257,389.884,330.45z"/>
	<path fill="#E5E5E5" d="M175.943,370.037c0-19.977,11.348-37.538,28.486-47.618c9.693-5.703,21.238,3.395,33.631,3.395
		c12.049,0,23.299-9.277,32.822-3.863c17.59,10,29.295,27.797,29.295,48.086c0,19.951-11.318,33.221-28.418,43.309
		c-9.707,5.725-21.277-2.941-33.699-2.941c-12.438,0-24.021,8.658-33.736,2.918C187.244,403.232,175.943,389.972,175.943,370.037z"
		/>
	<path fill-rule="evenodd" clip-rule="evenodd" fill="#ED97A1" d="M270.648,319.638c-4.695-3.457-25.174,4.072-32.588,4.061
		c-7.328-0.008-27.932-7.475-32.584-4.061c-5.467,4.008,4.531,30.309,27.811,35.031c0,0.174,2.83,40.702,4.775,40.702
		s4.777-40.528,4.777-40.702C266.117,349.944,276.101,323.649,270.648,319.638z"/>
	<g>
		<g>
			<path fill="#FFFFFF" d="M311.736,331.098c-16.906,0-23.06-11.29-23.313-11.771l-0.232-0.441l-0.078-0.493
				c-0.451-2.866-10.86-70.432,6.356-90.574c3.426-4.008,7.707-6.04,12.725-6.04c1.326,0,2.716,0.146,4.131,0.437
				c33.25,6.806,39.031,32.568,42.856,49.616c0.702,3.128,1.364,6.083,2.106,8.479c2.166,6.99-0.023,16.457-6.007,25.975
				c-8.22,13.077-20.926,22.629-32.371,24.337C315.794,330.938,313.718,331.098,311.736,331.098z"/>
			<path fill="#969696" d="M307.193,224.78c1.116,0,2.291,0.122,3.529,0.375c37.395,7.654,37.889,40.516,42.699,56.043
				c4.811,15.529-16.25,43.518-35.955,46.457c-2.048,0.306-3.956,0.442-5.73,0.442c-15.291,0-20.66-10.171-20.66-10.171
				S276.402,224.781,307.193,224.78 M307.194,218.78L307.194,218.78c-5.852,0-11.041,2.452-15.006,7.092
				c-7.854,9.188-11.375,27.834-10.467,55.421c0.651,19.767,3.314,36.851,3.428,37.568l0.155,0.985l0.465,0.882
				c0.289,0.546,7.273,13.37,25.967,13.37c2.13,0,4.355-0.171,6.615-0.508c12.273-1.831,25.804-11.921,34.469-25.707
				c6.544-10.411,8.793-20.518,6.333-28.459c-0.707-2.282-1.357-5.18-2.046-8.248c-1.965-8.758-4.41-19.658-10.729-29.485
				c-7.546-11.737-19.138-19.278-34.453-22.413C310.313,218.947,308.72,218.78,307.194,218.78L307.194,218.78z"/>
		</g>
		<path fill="#70391B" d="M291.076,317.927c0,0-6.275-38.363-2.252-67.377c1.025-7.4,21.451-11.883,34.391,1.523
			c15.982,16.557,24.639,53.158,20.328,58.459c-7.051,8.678-16.715,15.727-26.076,17.123
			C297.763,330.595,291.076,317.927,291.076,317.927z"/>
		<path fill="#231F20" d="M291.076,317.927c0,0-5.355-32.727-3.002-60.588c0.195-2.305,20.072-9.627,33.012,3.779
			c15.979,16.557,22.426,48.912,18.115,54.213c-7.051,8.678-12.373,10.928-21.734,12.324
			C297.763,330.595,291.076,317.927,291.076,317.927z"/>
		<path fill="#FFFFFF" d="M332.396,277.47c-3.736,8.574-10.895,13.201-16.342,6.246c-3.426-4.367-1.457-11.758,2.279-20.334
			c3.732-8.572,5.078-17.688,10.17-15.471C333.591,250.13,336.128,268.896,332.396,277.47z"/>
	</g>
	<g>
		<g>
			<path fill="#FFFFFF" d="M168.917,331.098c-1.982,0-4.06-0.16-6.173-0.475c-11.446-1.708-24.153-11.262-32.372-24.34
				c-5.981-9.518-8.17-18.984-6.004-25.973c0.742-2.396,1.405-5.35,2.106-8.478c3.825-17.048,9.605-42.81,42.854-49.616
				c1.415-0.29,2.805-0.437,4.131-0.437c5.018,0,9.299,2.032,12.725,6.04c17.217,20.142,6.808,87.708,6.356,90.574l-0.078,0.492
				l-0.232,0.441C191.977,319.808,185.824,331.098,168.917,331.098C168.917,331.098,168.918,331.098,168.917,331.098z"/>
			<path fill="#969696" d="M173.46,224.78c30.791,0,16.117,93.147,16.117,93.147s-5.367,10.171-20.66,10.171
				c-1.773,0-3.683-0.137-5.73-0.442c-19.703-2.939-40.766-30.928-35.953-46.457c4.811-15.527,5.305-48.389,42.697-56.043
				C171.169,224.902,172.344,224.78,173.46,224.78 M173.46,218.78c-1.527,0-3.12,0.167-4.732,0.498
				c-15.314,3.135-26.906,10.675-34.451,22.413c-6.318,9.827-8.764,20.727-10.729,29.485c-0.688,3.068-1.339,5.966-2.046,8.248
				c-2.46,7.94-0.213,18.046,6.33,28.457c8.665,13.788,22.195,23.879,34.469,25.71c2.261,0.337,4.486,0.508,6.616,0.508
				c18.696,0,25.679-12.825,25.967-13.371l0.465-0.882l0.155-0.985c0.113-0.717,2.776-17.802,3.428-37.569
				c0.908-27.587-2.613-46.233-10.467-55.421C184.5,221.232,179.311,218.78,173.46,218.78L173.46,218.78z"/>
		</g>
		<path fill="#70391B" d="M189.578,317.927c0,0,6.277-38.363,2.252-67.377c-1.025-7.4-21.451-11.883-34.391,1.523
			c-15.98,16.557-24.639,53.158-20.328,58.459c7.051,8.678,16.717,15.727,26.076,17.123
			C182.892,330.595,189.578,317.927,189.578,317.927z"/>
		<path fill="#231F20" d="M189.578,317.927c0,0,5.355-32.727,3.002-60.588c-0.193-2.305-20.072-9.627-33.012,3.779
			c-15.979,16.557-22.424,48.912-18.115,54.213c7.053,8.678,12.375,10.928,21.734,12.324
			C182.892,330.595,189.578,317.927,189.578,317.927z"/>
		<path fill="#FFFFFF" d="M148.259,277.47c3.734,8.574,10.895,13.201,16.34,6.246c3.428-4.367,1.457-11.758-2.279-20.334
			c-3.732-8.572-5.078-17.688-10.168-15.471C147.062,250.13,144.525,268.896,148.259,277.47z"/>
	</g>
</g>
</svg>
