<?xml version="1.0" encoding="utf-8"?>
<!-- Generator: Adobe Illustrator 16.0.0, SVG Export Plug-In . SVG Version: 6.00 Build 0)  -->
<!DOCTYPE svg PUBLIC "-//W3C//DTD SVG 1.1//EN" "http://www.w3.org/Graphics/SVG/1.1/DTD/svg11.dtd">
<svg version="1.1" id="Layer_1" xmlns="http://www.w3.org/2000/svg" xmlns:xlink="http://www.w3.org/1999/xlink" x="0px" y="0px"
	 width="483.137px" height="604.396px" viewBox="0 0 483.137 604.396" enable-background="new 0 0 483.137 604.396"
	 xml:space="preserve">
<g>
	<path fill-rule="evenodd" clip-rule="evenodd" fill="#AEAEAE" stroke="#989898" stroke-width="5" stroke-miterlimit="10" d="
		M204.691,470.82c8.129,3.344,17.934,14.109,11.014,30.93c-4.928,11.982-14.785,35.943-19.713,47.923
		c-2.518,6.121-14.674,47.385-37.826,37.861c-31.518-12.965-17.475-102.634-12.547-114.615
		C148.136,466.8,177.921,459.808,204.691,470.82z"/>
	<path fill-rule="evenodd" clip-rule="evenodd" fill="#AEAEAE" stroke="#989898" stroke-width="5" stroke-miterlimit="10" d="
		M276.453,470.82c-8.129,3.344-17.932,14.109-11.014,30.93c4.928,11.982,14.785,35.943,19.715,47.923
		c2.516,6.121,14.674,47.385,37.826,37.861c31.516-12.965,17.475-102.634,12.547-114.615
		C333.007,466.8,303.224,459.808,276.453,470.82z"/>
	<path fill-rule="evenodd" clip-rule="evenodd" fill="#CDCCCC" stroke="#BCBCBC" stroke-width="5" stroke-miterlimit="10" d="
		M359.087,392.244c0,90.293-53.494,102.912-119.48,102.912s-119.479-12.619-119.479-102.912
		c0-90.292,73.648-102.912,119.479-102.912S359.087,301.951,359.087,392.244z"/>
	<path fill-rule="evenodd" clip-rule="evenodd" fill="#CDCCCC" stroke="#BCBCBC" stroke-width="6" stroke-miterlimit="10" d="
		M468.914,18.149c-2.932-17.855-15.875-15.915-34.414-5.206c-20.848,12.037-82.568,27.151-82.771,26.988
		c-50.816,16.116-63.332,92.644-64.064,118.558c-0.312,11.206,6.01,31.056,7.506,31.984c3.742,2.327,11.27,6.371,16.746,7.549
		c14.469,3.104,91.975-8.284,144.5-89.026C467.886,91.361,476.453,64.086,468.914,18.149z"/>
	<path fill-rule="evenodd" clip-rule="evenodd" fill="#CDCCCC" stroke="#BCBCBC" stroke-width="6" stroke-miterlimit="10" d="
		M10.652,18.149c2.93-17.855,15.874-15.915,34.414-5.206c20.847,12.037,82.568,27.151,82.771,26.988
		c50.816,16.116,63.332,92.644,64.064,118.558c0.312,11.206-6.012,31.056-7.506,31.984c-3.744,2.327-11.27,6.371-16.746,7.549
		c-14.469,3.104-91.975-8.284-144.5-89.026C11.679,91.361,3.112,64.086,10.652,18.149z"/>
	<path fill="#B7B7B8" stroke="#BCBCBC" stroke-width="6" stroke-miterlimit="10" d="M389.931,313.197
		c0,67.191-67.303,91.177-150.322,91.177c-83.023,0-150.325-23.986-150.325-91.177c0-67.193,60.698-164.164,150.325-164.164
		C329.232,149.033,389.931,246.004,389.931,313.197z"/>
	<path fill="#E5E5E5" d="M175.988,352.783c0-19.977,11.348-37.537,28.488-47.617c9.691-5.703,21.236,3.395,33.629,3.395
		c12.051,0,23.299-9.277,32.824-3.863c17.588,10,29.293,27.797,29.293,48.086c0,19.951-11.316,33.22-28.418,43.308
		c-9.707,5.725-21.277-2.941-33.699-2.941c-12.438,0-24.021,8.658-33.736,2.918C187.289,385.978,175.988,372.719,175.988,352.783z"
		/>
	<path fill-rule="evenodd" clip-rule="evenodd" fill="#ED97A1" d="M270.693,302.385c-4.695-3.457-25.174,4.072-32.588,4.061
		c-7.328-0.008-27.932-7.475-32.584-4.061c-5.467,4.008,4.531,30.309,27.811,35.031c0,0.174,2.83,40.701,4.775,40.701
		s4.777-40.527,4.777-40.701C266.164,332.691,276.146,306.396,270.693,302.385z"/>
	<g>
		<g>
			<path fill="#FFFFFF" d="M311.783,313.845c-16.907,0-23.06-11.29-23.313-11.771l-0.232-0.44l-0.078-0.493
				c-0.451-2.866-10.86-70.432,6.356-90.574c3.426-4.008,7.707-6.04,12.725-6.04c1.326,0,2.716,0.146,4.131,0.437
				c33.249,6.806,39.029,32.568,42.854,49.616c0.701,3.128,1.364,6.083,2.106,8.479c2.166,6.988-0.022,16.455-6.004,25.972
				c-8.219,13.078-20.926,22.632-32.372,24.34C315.841,313.685,313.764,313.845,311.783,313.845z"/>
			<path fill="#969696" d="M307.24,207.527c1.116,0,2.291,0.122,3.529,0.375c37.393,7.654,37.887,40.516,42.697,56.043
				c4.812,15.529-16.25,43.518-35.953,46.457c-2.048,0.306-3.957,0.442-5.73,0.442c-15.293,0-20.66-10.171-20.66-10.171
				S276.449,207.528,307.24,207.527 M307.241,201.527L307.241,201.527c-5.852,0-11.041,2.452-15.006,7.092
				c-7.854,9.188-11.375,27.834-10.467,55.421c0.651,19.767,3.314,36.851,3.428,37.568l0.155,0.985l0.465,0.882
				c0.288,0.546,7.271,13.371,25.967,13.371c2.13,0,4.355-0.171,6.615-0.508c12.274-1.831,25.805-11.923,34.47-25.71
				c6.543-10.41,8.79-20.516,6.33-28.457c-0.707-2.281-1.357-5.179-2.046-8.248c-1.965-8.758-4.41-19.658-10.729-29.485
				c-7.545-11.737-19.137-19.278-34.451-22.413C310.36,201.694,308.767,201.527,307.241,201.527L307.241,201.527z"/>
		</g>
		<path fill="#70391B" d="M291.123,300.674c0,0-6.277-38.363-2.252-67.377c1.025-7.4,21.451-11.883,34.391,1.523
			c15.98,16.557,24.639,53.158,20.328,58.459c-7.051,8.678-16.717,15.727-26.076,17.123
			C297.808,313.342,291.123,300.674,291.123,300.674z"/>
		<path fill="#231F20" d="M291.123,300.674c0,0-5.355-32.727-3.002-60.588c0.193-2.305,20.072-9.627,33.012,3.779
			c15.979,16.557,22.424,48.912,18.115,54.213c-7.053,8.678-12.375,10.928-21.734,12.324
			C297.808,313.342,291.123,300.674,291.123,300.674z"/>
		<path fill="#FFFFFF" d="M332.441,260.217c-3.734,8.574-10.895,13.201-16.34,6.246c-3.428-4.367-1.457-11.758,2.279-20.334
			c3.732-8.572,5.078-17.688,10.168-15.471C333.638,232.877,336.175,251.643,332.441,260.217z"/>
	</g>
	<g>
		<g>
			<path fill="#FFFFFF" d="M168.963,313.845c-1.981,0-4.059-0.16-6.172-0.475c-11.445-1.708-24.151-11.26-32.371-24.337
				c-5.983-9.518-8.173-18.985-6.007-25.975c0.742-2.396,1.404-5.351,2.106-8.479c3.825-17.047,9.606-42.81,42.856-49.616
				c1.415-0.29,2.805-0.437,4.131-0.437c5.018,0,9.299,2.032,12.725,6.04c17.217,20.142,6.808,87.708,6.356,90.574l-0.078,0.493
				l-0.232,0.441C192.024,302.555,185.869,313.845,168.963,313.845C168.963,313.845,168.965,313.845,168.963,313.845z"/>
			<path fill="#969696" d="M173.507,207.527c30.791,0,16.117,93.147,16.117,93.147s-5.369,10.171-20.66,10.171
				c-1.774,0-3.683-0.137-5.73-0.442c-19.705-2.939-40.766-30.928-35.955-46.457c4.811-15.527,5.305-48.389,42.699-56.043
				C171.216,207.649,172.391,207.527,173.507,207.527 M173.507,201.527c-1.527,0-3.12,0.167-4.732,0.498
				c-15.315,3.135-26.907,10.675-34.453,22.413c-6.318,9.827-8.764,20.728-10.729,29.485c-0.688,3.068-1.339,5.966-2.046,8.247
				c-2.46,7.942-0.211,18.049,6.333,28.46c8.665,13.786,22.195,23.876,34.469,25.707c2.26,0.337,4.485,0.508,6.615,0.508
				c18.693,0,25.678-12.824,25.967-13.37l0.465-0.882l0.155-0.985c0.113-0.717,2.776-17.802,3.428-37.569
				c0.908-27.587-2.613-46.233-10.467-55.421C184.547,203.979,179.358,201.527,173.507,201.527L173.507,201.527z"/>
		</g>
		<path fill="#70391B" d="M189.625,300.674c0,0,6.275-38.363,2.252-67.377c-1.025-7.4-21.451-11.883-34.391,1.523
			c-15.982,16.557-24.639,53.158-20.328,58.459c7.051,8.678,16.715,15.727,26.076,17.123
			C182.937,313.342,189.625,300.674,189.625,300.674z"/>
		<path fill="#231F20" d="M189.625,300.674c0,0,5.355-32.727,3.002-60.588c-0.195-2.305-20.072-9.627-33.012,3.779
			c-15.979,16.557-22.426,48.912-18.115,54.213c7.051,8.678,12.373,10.928,21.734,12.324
			C182.937,313.342,189.625,300.674,189.625,300.674z"/>
		<path fill="#FFFFFF" d="M148.304,260.217c3.736,8.574,10.895,13.201,16.342,6.246c3.426-4.367,1.457-11.758-2.279-20.334
			c-3.732-8.572-5.078-17.688-10.17-15.471C147.109,232.877,144.572,251.643,148.304,260.217z"/>
	</g>
</g>
</svg>
