<?xml version="1.0" encoding="utf-8"?>
<!-- Generator: Adobe Illustrator 16.0.0, SVG Export Plug-In . SVG Version: 6.00 Build 0)  -->
<!DOCTYPE svg PUBLIC "-//W3C//DTD SVG 1.1//EN" "http://www.w3.org/Graphics/SVG/1.1/DTD/svg11.dtd">
<svg version="1.1" id="Layer_1" xmlns="http://www.w3.org/2000/svg" xmlns:xlink="http://www.w3.org/1999/xlink" x="0px" y="0px"
	 width="513.452px" height="551.346px" viewBox="0 0 513.452 551.346" enable-background="new 0 0 513.452 551.346"
	 xml:space="preserve">
<g>
	<path fill-rule="evenodd" clip-rule="evenodd" fill="#AEAEAE" stroke="#989898" stroke-width="5" stroke-miterlimit="10" d="
		M239.24,511.648c0.6,14.939,13.027,26.57,41.662,25.421c28.637-1.148,50.646-4.002,50.043-18.943
		c-0.596-14.939-22.135-28.465-50.77-27.314C251.539,491.962,238.64,496.708,239.24,511.648z"/>
	<path fill-rule="evenodd" clip-rule="evenodd" fill="#AEAEAE" stroke="#989898" stroke-width="5" stroke-miterlimit="10" d="
		M108.736,493.781c-1.705,14.854,7.52,35.626,35.992,38.892c28.471,3.266,50.658,3.828,52.359-11.025
		c1.705-14.855-17.496-31.529-45.969-34.797c-17.113-1.961-25.935-28.5-32.548-26.932
		C114.18,460.96,109.416,487.851,108.736,493.781z"/>
	<g id="XMLID_26_">
		<g>
			<path fill="#BCBCBC" d="M9.321,325.572c-6.01,28.89,8.869,57.926,34.642,67.527c2.454,0.92,5.032,1.664,7.611,2.208
				c14.589,3.041,29.549-0.209,42.137-9.149c12.533-8.89,21.218-22.355,24.451-37.912c6.447-30.922,0.42-47.813-23.908-66.955
				c-4.957-3.917-10.966-7.178-17.883-9.77c-11.882-4.43-28.916-6.17-28.916-6.17l-0.931,3.251
				c-6.365,13.33-19.892,27.999-26.982,37.983C14.99,312.978,10.687,319.016,9.321,325.572z"/>
		</g>
		<g>
			<path fill="none" stroke="#BCBCBC" stroke-width="6" stroke-miterlimit="10" d="M9.321,325.572
				c1.365-6.556,5.669-12.594,10.222-18.986c7.09-9.984,20.617-24.653,26.982-37.983l0.931-3.251c0,0,17.034,1.741,28.916,6.17
				c6.917,2.592,12.926,5.852,17.883,9.77c24.329,19.142,30.355,36.032,23.908,66.955c-3.233,15.557-11.918,29.022-24.451,37.912
				c-12.588,8.94-27.548,12.19-42.137,9.149c-2.579-0.544-5.158-1.288-7.611-2.208C18.19,383.498,3.311,354.461,9.321,325.572z"/>
		</g>
	</g>
	<g id="XMLID_25_">
		<g>
			<path fill="#E5E5E5" d="M37.547,320.202c-2.43,28.133,44.176,63.709,56.107,55.25c11.989-8.511,16.395-13.39,19.509-28.337
				c6.32-30.31,0.702-46.064-23.107-64.811c-4.664-3.674-10.642-6.925-17.266-9.405c-10.981-4.091-14.536-4.397-21.086-6.147
				C55.247,285.741,38.623,307.766,37.547,320.202z"/>
		</g>
		<g>
		</g>
	</g>
	<g>
		<path fill-rule="evenodd" clip-rule="evenodd" fill="#CDCCCC" d="M181.681,496.941c76.566,13.561,181.248,7.941,190.752-81.473
			c6.432-60.518-74.916-126.668-151.479-140.231c-76.564-13.561-137.701,26.518-148.546,87.739
			C61.564,424.197,105.121,483.378,181.681,496.941z"/>
		<path fill="#BCBCBC" d="M181.208,499.609c-37.068-6.566-68.699-24.357-89.066-50.096c-19.924-25.182-27.879-56.082-22.402-87.01
			c4.773-26.941,18.857-50.042,40.732-66.803c22.039-16.888,50.091-25.813,81.123-25.813c9.744,0,19.783,0.902,29.832,2.683
			c37.742,6.687,78.186,26.554,108.186,53.148c15.334,13.588,27.117,28.037,35.027,42.946c8.562,16.145,12.094,31.988,10.488,47.092
			c-3.385,31.846-18.795,55.658-45.805,70.777c-22.15,12.396-51.457,18.682-87.111,18.682
			C222.738,505.214,202.214,503.328,181.208,499.609z M95.875,319.534c-34.66,65.217,30.754,158.45,143.345,166.077
			c34.637,2.346,65.256,3.254,86.586-8.686c25.387-14.211,40.744-31.746,43.932-61.742c2.881-27.098-13.053-58.229-43.717-85.411
			c-29.285-25.957-68.74-45.348-105.539-51.865c-9.74-1.727-19.457-2.601-28.887-2.601
			C146.33,275.307,112.012,289.165,95.875,319.534z"/>
	</g>
	<path fill-rule="evenodd" clip-rule="evenodd" fill="#BCBCBC" stroke="#BCBCBC" stroke-width="6" stroke-miterlimit="10" d="
		M161.99,12.905c-18.713,3.678-16.238,17.248-4.346,36.422c13.373,21.559,31.34,86.072,31.174,86.29
		c18.662,52.995,99.688,63.64,127.012,63.55c11.811-0.039,32.508-7.359,33.436-8.963c2.33-4.02,6.338-12.082,7.396-17.891
		c2.793-15.344-11.777-96.608-98.568-149.258C239.142,11.556,210.125,3.44,161.99,12.905z"/>
	<g>
		<path fill="#B7B7B8" d="M414.484,422.146c-13.313,0-25.353-2.344-35.782-6.969c-20.276-8.987-22.768-9.649-30.161-11.616
			c-6.118-1.626-15.363-4.085-39.841-12.522c-52.055-17.946-76.725-60.286-82.454-93.924c-6.819-40.043,2.713-77.282,29.141-113.845
			c10.596-14.658,29.728-23.89,43.911-29.054c16.771-6.106,36.089-10.037,52.997-10.786c1.685-0.075,3.404-0.112,5.113-0.112
			c22.513,0,46.85,6.59,68.527,18.558c22.67,12.514,41.245,29.956,53.719,50.438c9.352,15.355,8.282,37.432,7.249,58.782
			c-0.898,18.556-1.827,37.743,3.954,52.354c1.389,3.507,2.891,6.672,4.343,9.732c4.155,8.756,7.743,16.318,5.619,25.875
			c-3.974,18.754-11.847,27.201-13.489,28.797c-11.239,15.861-27.685,27.44-44.046,30.999
			C433.231,421.039,423.541,422.146,414.484,422.146z"/>
		<g>
			<path fill="#BCBCBC" d="M357.408,146.317c44.619-0.001,94.36,25.971,119.684,67.557c16.771,27.538-1.807,78.376,10.977,110.68
				c5.357,13.535,12.412,22.203,9.822,33.852c-4.207,19.855-12.838,27.473-12.838,27.473c-10.85,15.43-26.736,26.635-42.406,30.043
				c-10.546,2.293-19.91,3.225-28.162,3.225c-15.067,0-26.435-3.105-34.566-6.711c-37.061-16.428-15.715-5.438-70.24-24.232
				c-48.969-16.883-74.498-56.504-80.475-91.592c-8.021-47.104,8.727-84.068,28.615-111.584c17.732-24.53,64.08-37.248,94.609-38.6
				C354.079,146.354,355.741,146.317,357.408,146.317 M357.411,140.317v6V140.317c-1.758,0-3.522,0.039-5.249,0.115
				c-28.865,1.278-79.105,13.272-99.206,41.079c-12.021,16.631-20.411,33.055-25.65,50.209c-6.491,21.259-7.844,43.43-4.018,65.897
				c3.388,19.889,12.158,39.041,25.363,55.386c15.021,18.593,35.447,32.726,59.07,40.871c24.581,8.474,33.889,10.948,40.049,12.586
				c7.223,1.921,9.656,2.568,29.716,11.46c10.815,4.795,23.263,7.226,36.998,7.226c9.271,0,19.175-1.131,29.437-3.361
				c16.994-3.696,34.036-15.628,45.693-31.966c2.347-2.329,10.127-11.226,14.141-30.143c2.333-10.548-1.639-18.919-5.845-27.781
				c-1.432-3.016-2.911-6.135-4.263-9.55c-5.544-14.009-4.631-32.868-3.748-51.105c1.056-21.802,2.147-44.346-7.683-60.487
				c-12.744-20.927-31.704-38.737-54.83-51.503C405.272,147.041,380.42,140.317,357.411,140.317L357.411,140.317z"/>
		</g>
	</g>
	<g>
		<g>
			<path fill="#E5E5E5" d="M381.248,383.947c0,16.564-2.049,31.889,36.461,34.154c41.9,2.467,68.412-29.787,75.713-45.4
				c3.508-7.502-7.83-4.281-20.502-7.693c-12.67-3.41-26.674-13.452-41.406-13.452C402.044,351.556,381.248,367.382,381.248,383.947
				z"/>
		</g>
	</g>
	<g>
		<g>
			<path fill="#717171" d="M501.746,344.318l-0.027,0.143c0.008-0.046,0.018-0.091,0.023-0.138
				C501.742,344.321,501.746,344.318,501.746,344.318z"/>
		</g>
	</g>
	<g>
		<path fill-rule="evenodd" clip-rule="evenodd" fill="#CDCCCC" d="M72.287,83.075c-2.646-18.886,10.986-20.989,32.996-16.022
			c24.748,5.584,91.587,1.456,91.742,1.229c56.184,0.295,92.748,73.381,101.602,99.227c3.828,11.178,3.682,33.129,2.467,34.531
			c-3.035,3.518-9.34,9.943-14.484,12.844c-13.584,7.658-95.143,20.475-173.289-44.314C96.254,156.421,79.09,131.658,72.287,83.075z
			"/>
		<path fill="#BCBCBC" d="M69.549,83.459c-1.164-8.286,0.119-18.655,12.832-20.981c5.641-1.032,13.334-0.418,23.512,1.877
			c22.555,5.09,80.771,1.975,89.568,1.309l0.105-0.154l1.473,0.009c57.178,0.301,94.607,73.079,104.205,101.094
			c1.135,3.314,2.027,8.302,2.615,13.565c-1.799-0.72-3.705-1.169-5.664-1.353c-0.482-3.819-1.182-7.496-2.184-10.418
			c-4.887-14.268-16.355-38.11-32.594-58.362c-20.594-25.684-42.875-38.803-66.221-38.996c-5.17,0.542-68.095,4.213-92.523-1.298
			c-9.436-2.13-16.404-2.728-21.297-1.833c-5.027,0.921-9.949,3.395-8.354,14.775c5.604,39.998,18.707,68.045,40.062,85.748
			c72.138,59.809,143.205,50.498,156.716,48.023c1.635-0.301,3.197-0.633,4.664-0.982c0.686,1.729,1.387,3.455,2.08,5.184
			c-1.781,0.442-3.693,0.861-5.75,1.238l0,0c-13.943,2.553-87.215,12.17-161.242-49.204
			C89.092,154.075,75.352,124.885,69.549,83.459z"/>
	</g>
	<g>
		<g>
			<path fill="#FFFFFF" d="M357.819,343.024c-2.73,0-5.605-0.276-8.546-0.819c-13.099-2.42-27.352-13.942-36.311-29.354
				c-6.5-11.181-8.65-22.126-5.899-30.029c0.966-2.774,1.858-6.191,2.803-9.81c5.103-19.539,12.812-49.065,51.422-55.583
				c1.364-0.23,2.705-0.347,3.987-0.347c5.866,0,10.795,2.368,14.649,7.038c19.451,23.569,4.552,102.127,3.907,105.459l-0.095,0.49
				l-0.247,0.433C383.197,331.013,376.104,343.024,357.819,343.024C357.819,343.024,357.82,343.024,357.819,343.024z"/>
			<path fill="#969696" d="M365.275,220.083c36.654,0,15.611,108.928,15.611,108.928s-6.31,11.013-23.067,11.013
				c-2.44,0-5.104-0.233-8.001-0.769c-22.785-4.21-46.137-37.59-39.922-55.446c6.219-17.855,8.117-56.031,51.891-63.421
				C363.005,220.182,364.165,220.083,365.275,220.083 M365.275,214.083c-1.448,0-2.958,0.131-4.487,0.389
				c-17.658,2.981-31.219,11.142-40.307,24.254c-7.642,11.025-10.899,23.503-13.518,33.529c-0.929,3.559-1.807,6.92-2.733,9.581
				c-3.084,8.859-0.903,20.41,6.139,32.524c9.38,16.135,24.437,28.223,38.359,30.795c3.119,0.577,6.179,0.869,9.091,0.869
				c20.005,0,27.945-13.458,28.273-14.03l0.496-0.866l0.188-0.979c0.161-0.834,3.964-20.689,5.499-43.698
				c2.133-31.972-1.244-53.585-10.038-64.24C377.849,216.893,371.984,214.083,365.275,214.083L365.275,214.083z"/>
		</g>
		<path fill="#70391B" d="M380.886,329.011c0,0,8.84-44.338,5.33-78.223c-0.895-8.644-24.457-14.678-40.035,0.382
			c-19.242,18.601-30.779,60.798-25.984,67.133c7.848,10.371,18.799,18.952,29.621,20.952
			C372.603,343.467,380.886,329.011,380.886,329.011z"/>
		<path fill="#231F20" d="M380.886,329.011c0,0,7.541-37.824,5.928-70.303c-0.133-2.685-22.941-11.998-38.521,3.061
			c-19.24,18.602-28.035,55.951-23.242,62.287c7.848,10.371,13.945,13.199,24.768,15.199
			C372.603,343.467,380.886,329.011,380.886,329.011z"/>
		<path fill="#FFFFFF" d="M334.488,280.321c3.994,10.117,12.131,15.783,18.744,7.921c4.158-4.939,2.164-13.61-1.832-23.729
			c-3.996-10.115-5.189-20.764-11.197-18.393C334.199,248.492,330.492,270.206,334.488,280.321z"/>
	</g>
	<path fill="#ED97A1" d="M442.359,347.991c13.834,0.746,27.662,10.159,36.535,10.415c5.424,0.158,10.641-3.604,16.912-7.11
		c6.381-3.591,5.613,3.981,4.18,8.329c-2.217,6.729-12.926,20.83-20.775,23.299c-1.537,0.482-22.625,28.271-23.281,28.152
		c-0.754-0.135,9.492-26.613,8.164-27.254c-12.924-6.23-35.117-30.513-35.117-30.513S435.562,347.623,442.359,347.991z"/>
</g>
</svg>
