<?xml version="1.0" encoding="UTF-8" standalone="no"?>
<svg
   xmlns:dc="http://purl.org/dc/elements/1.1/"
   xmlns:cc="http://creativecommons.org/ns#"
   xmlns:rdf="http://www.w3.org/1999/02/22-rdf-syntax-ns#"
   xmlns:svg="http://www.w3.org/2000/svg"
   xmlns="http://www.w3.org/2000/svg"
   xml:space="preserve"
   enable-background="new 0 0 471.77 629.026"
   viewBox="0 0 471.77 629.026"
   height="629.026px"
   width="471.77px"
   y="0px"
   x="0px"
   id="Layer_1"
   version="1.1"><metadata
   id="metadata81"><rdf:RDF><cc:Work
       rdf:about=""><dc:format>image/svg+xml</dc:format><dc:type
         rdf:resource="http://purl.org/dc/dcmitype/StillImage" /><dc:title></dc:title></cc:Work></rdf:RDF></metadata><defs
   id="defs79" />
<g
   transform="matrix(-1,0,0,1,466.34676,0)"
   id="g74">
	<g
   id="XMLID_18_">
		<g
   id="g4">
			<path
   style="fill:#bcbcbc"
   id="path2"
   d="m 20.85,419.218 c -6.02,28.89 8.869,57.926 34.632,67.528 2.463,0.92 5.033,1.664 7.621,2.198 14.58,3.051 29.54,-0.2 42.137,-9.14 12.524,-8.889 21.208,-22.355 24.451,-37.912 6.447,-30.922 0.411,-47.812 -23.918,-66.964 -4.947,-3.908 -10.966,-7.178 -17.882,-9.76 -11.873,-4.43 -28.907,-6.171 -28.907,-6.171 l -0.931,3.252 c -6.375,13.33 -19.892,27.999 -26.992,37.983 -4.552,6.392 -8.846,12.43 -10.211,18.986 z" />
		</g>
		<g
   id="g8">
			<path
   style="fill:none;stroke:#bcbcbc;stroke-width:6;stroke-miterlimit:10"
   id="path6"
   d="m 20.85,419.218 c 1.365,-6.556 5.659,-12.594 10.212,-18.986 7.1,-9.984 20.617,-24.653 26.992,-37.983 l 0.931,-3.252 c 0,0 17.034,1.741 28.907,6.171 6.917,2.583 12.935,5.852 17.882,9.76 24.329,19.151 30.365,36.042 23.918,66.964 -3.243,15.557 -11.927,29.023 -24.451,37.912 -12.597,8.94 -27.558,12.19 -42.137,9.14 -2.588,-0.535 -5.157,-1.278 -7.621,-2.198 C 29.719,477.144 14.831,448.108 20.85,419.218 Z"
   stroke-miterlimit="10" />
		</g>
	</g>
	<g
   id="XMLID_17_">
		<g
   id="g13">
			<path
   style="fill:#e5e5e5"
   id="path11"
   d="m 49.069,413.838 c -2.43,28.133 44.176,63.709 56.107,55.25 11.989,-8.511 16.395,-13.39 19.509,-28.337 6.32,-30.31 0.702,-46.064 -23.107,-64.811 -4.664,-3.674 -10.642,-6.925 -17.266,-9.405 -10.981,-4.091 -14.536,-4.397 -21.086,-6.147 3.542,18.989 -13.082,41.014 -14.157,53.45 z" />
		</g>
		<g
   id="g15">
		</g>
	</g>
	<path
   style="clip-rule:evenodd;fill:#aeaeae;fill-rule:evenodd;stroke:#989898;stroke-width:5;stroke-miterlimit:10"
   id="path18"
   d="m 177.462,494.221 c 8.176,4.086 17.523,15.994 9.072,32.909 -6.02,12.051 -18.061,36.15 -24.082,48.201 -3.074,6.154 -18.814,48.021 -42.1,36.387 -31.697,-15.836 -10.326,-107.754 -4.309,-119.803 3.08,-6.155 34.494,-11.147 61.419,2.306 z"
   stroke-miterlimit="10" />
	<path
   style="clip-rule:evenodd;fill:#aeaeae;fill-rule:evenodd;stroke:#989898;stroke-width:5;stroke-miterlimit:10"
   id="path20"
   d="m 268.648,501.942 c 8.176,4.084 17.523,15.992 9.072,32.907 -6.02,12.053 -18.061,36.15 -24.082,48.201 -3.074,6.154 -18.814,48.023 -42.098,36.387 -31.699,-15.834 -10.328,-107.754 -4.309,-119.803 3.077,-6.155 34.493,-11.145 61.417,2.308 z"
   stroke-miterlimit="10" />
	<g
   id="g26">
		<path
   style="clip-rule:evenodd;fill:#cdcccc;fill-rule:evenodd"
   id="path22"
   d="m 107.842,418.497 c 1.994,93.861 57.88,105.797 126.474,104.338 C 302.91,521.378 358.238,507.081 356.244,413.218 354.25,319.36 277.412,307.867 229.771,308.88 182.13,309.891 105.848,324.637 107.842,418.497 Z" />
		<path
   style="fill:#bcbcbc"
   id="path24"
   d="m 130.298,508.118 c -25.613,-16.332 -38.523,-45.789 -39.462,-90.051 -0.898,-42.268 28.167,-72.696 57.976,-91.399 20.436,-12.821 47.654,-19.682 80.902,-20.389 33.248,-0.705 60.734,4.992 81.695,16.934 30.576,17.42 46.535,47.684 47.434,89.95 0.939,44.264 -10.705,74.24 -35.602,91.646 -24.359,17.027 -58.594,19.982 -88.871,20.625 -30.275,0.643 -79.011,-1.338 -104.072,-17.316 z M 110.439,418.44 c 3.898,86.596 96.381,101.34 125.879,100.713 29.498,-0.627 60.723,-2.373 83.943,-18.604 23.363,-16.334 34.285,-44.883 33.385,-87.277 -1.834,-86.269 -68.348,-102.973 -123.82,-101.795 -55.475,1.179 -123.265,20.761 -119.387,106.963 z" />
	</g>
	<g
   id="g72">
		<path
   style="clip-rule:evenodd;fill:#bcbcbc;fill-rule:evenodd;stroke:#bcbcbc;stroke-width:6;stroke-miterlimit:10"
   id="path28"
   d="m 97.924,12.602 c -18.99,4.467 -15.949,18.247 -3.064,37.403 14.488,21.532 35.296,86.812 35.134,87.04 21.084,53.478 104.326,61.295 132.258,60.169 12.074,-0.485 32.957,-8.753 33.846,-10.429 2.229,-4.196 6.025,-12.59 6.885,-18.57 C 305.258,152.422 287.29,69.891 196.565,19.346 176.753,8.303 146.779,1.105 97.924,12.602 Z"
   stroke-miterlimit="10" />
		<g
   id="g36">
			<path
   style="fill:#b7b7b8"
   id="path30"
   d="m 367.402,421.462 c -11.981,0 -22.976,-1.966 -32.676,-5.842 -21.079,-8.427 -23.651,-9.01 -31.289,-10.741 -6.316,-1.432 -15.861,-3.596 -41.2,-11.294 -53.873,-16.373 -80.679,-58.703 -87.801,-92.858 -8.483,-40.66 -0.15,-79.076 25.475,-117.442 10.27,-15.372 29.469,-25.526 43.766,-31.338 16.909,-6.874 36.502,-11.623 53.756,-13.028 3.19,-0.259 6.472,-0.391 9.753,-0.391 47.494,0 96.923,26.512 122.997,65.971 10.131,15.327 9.873,37.928 9.623,59.785 -0.217,19.012 -0.44,38.671 6.029,53.405 1.553,3.535 3.208,6.715 4.809,9.79 4.573,8.783 8.523,16.369 6.715,26.195 -3.353,19.333 -11.083,28.249 -12.686,29.923 -10.881,16.629 -27.243,29.08 -43.823,33.335 -11.726,3.006 -22.979,4.53 -33.448,4.53 z" />
			<g
   id="g34">
				<path
   style="fill:#bcbcbc"
   id="path32"
   d="m 307.185,141.528 c 44.506,-0.002 93.915,24.401 120.494,64.625 18.189,27.52 1.117,80.199 15.408,112.742 5.988,13.635 13.529,22.23 11.32,34.236 -3.549,20.463 -12.084,28.575 -12.084,28.575 -10.508,16.185 -26.328,28.242 -42.221,32.32 -12.435,3.188 -23.306,4.437 -32.701,4.437 -13.439,0 -23.865,-2.552 -31.562,-5.628 -38.512,-15.395 -16.271,-4.967 -72.73,-22.12 -50.703,-15.409 -78.303,-54.952 -85.736,-90.6 -9.984,-47.855 5.742,-86.281 25.033,-115.164 17.203,-25.75 64.107,-40.504 95.27,-43.042 3.135,-0.255 6.312,-0.381 9.509,-0.381 m 0.006,-6 v 6 l -0.002,-6 c -3.367,0 -6.73,0.135 -10,0.401 -29.438,2.397 -80.301,16.543 -99.772,45.689 -11.652,17.446 -19.603,34.541 -24.305,52.261 -5.828,21.96 -6.37,44.657 -1.612,67.461 4.208,20.182 13.887,39.409 27.99,55.604 16.043,18.422 37.438,32.084 61.875,39.511 25.442,7.729 35.051,9.908 41.408,11.35 7.466,1.692 9.98,2.263 30.839,10.601 10.058,4.02 21.426,6.057 33.79,6.057 10.721,0 22.225,-1.556 34.191,-4.625 17.208,-4.415 34.152,-17.241 45.434,-34.36 2.289,-2.442 9.901,-11.803 13.287,-31.291 1.981,-10.826 -2.386,-19.213 -7.01,-28.094 -1.578,-3.032 -3.211,-6.167 -4.724,-9.611 -6.209,-14.14 -5.988,-33.47 -5.775,-52.164 0.255,-22.31 0.518,-45.379 -10.12,-61.474 -26.606,-40.263 -77.039,-67.316 -125.494,-67.316 z" />
			</g>
		</g>
		<g
   id="g42">
			<g
   id="g40">
				<path
   style="fill:#717171"
   id="path38"
   d="m 457.82,338.585 -0.025,0.146 c 0.008,-0.048 0.016,-0.093 0.021,-0.142 0,-0.002 0.004,-0.004 0.004,-0.004 z" />
			</g>
		</g>
		<g
   id="g48">
			<path
   style="clip-rule:evenodd;fill:#cdcccc;fill-rule:evenodd"
   id="path44"
   d="M 8.865,87.733 C 5.445,68.525 19.307,65.86 41.996,70.104 c 25.512,4.774 93.693,-1.976 93.839,-2.213 57.457,-1.821 97.6,71.519 107.631,97.606 4.338,11.283 5.018,33.732 3.828,35.213 -2.971,3.709 -9.174,10.517 -14.324,13.677 -13.598,8.343 -96.496,24.53 -178.843,-38.753 C 36.145,161.814 17.66,137.148 8.865,87.733 Z" />
			<path
   style="fill:#bcbcbc"
   id="path46"
   d="M 6.08,88.23 C 4.58,79.801 5.498,69.153 18.406,66.294 c 5.729,-1.27 13.617,-0.935 24.111,1.029 23.252,4.351 82.652,-1.036 91.623,-2.051 l 0.102,-0.162 1.506,-0.045 c 58.469,-1.854 99.49,71.138 110.361,99.416 1.283,3.345 2.387,8.409 3.188,13.77 -1.867,-0.668 -3.834,-1.057 -5.844,-1.17 -0.637,-3.886 -1.492,-7.619 -2.627,-10.567 -5.535,-14.403 -18.162,-38.344 -35.529,-58.435 -22.027,-25.481 -45.303,-38.052 -69.178,-37.365 -5.266,0.749 -69.46,6.881 -94.644,2.17 -9.727,-1.82 -16.875,-2.167 -21.844,-1.066 -5.104,1.131 -10.041,3.845 -7.98,15.422 7.24,40.681 21.699,68.86 44.201,86.151 76.015,58.419 148.32,46.213 162.041,43.173 1.662,-0.37 3.246,-0.768 4.732,-1.182 0.766,1.741 1.547,3.48 2.322,5.221 -1.807,0.52 -3.744,1.021 -5.832,1.485 v 0 c -14.158,3.134 -88.707,15.737 -166.71,-44.21 C 28.734,159.689 13.58,130.364 6.08,88.23 Z" />
		</g>
		<g
   id="g54">
			<g
   id="g52">
				<path
   style="fill:#e5e5e5"
   id="path50"
   d="m 337.552,385.033 c 0.895,16.993 -0.385,32.825 39.244,33.075 43.119,0.273 68.582,-34.244 75.227,-50.654 3.201,-7.886 -8.258,-3.97 -21.443,-6.788 -13.182,-2.817 -28.09,-12.365 -43.205,-11.572 -30.233,1.588 -50.711,18.945 -49.823,35.939 z" />
			</g>
		</g>
		<g
   id="g68">
			<g
   id="g60">
				<path
   style="fill:#ffffff"
   id="path56"
   d="m 309.024,342.665 c -2.299,0 -4.708,-0.183 -7.161,-0.543 -13.465,-1.976 -28.454,-13.205 -38.186,-28.607 -7.058,-11.168 -9.666,-22.256 -7.159,-30.42 0.884,-2.875 1.667,-6.403 2.496,-10.139 4.473,-20.152 11.232,-50.606 50.418,-58.723 1.663,-0.345 3.294,-0.519 4.848,-0.519 5.784,0 10.728,2.347 14.693,6.976 20.348,23.747 8.192,103.875 7.665,107.275 l -0.077,0.493 -0.231,0.441 c -0.295,0.562 -7.455,13.766 -27.306,13.766 -10e-4,0 0.002,0 0,0 z" />
				<path
   style="fill:#969696"
   id="path58"
   d="m 314.28,216.714 c 36.582,0 19.394,110.791 19.394,110.791 0,0 -6.381,12.16 -24.648,12.16 -2.085,0 -4.324,-0.158 -6.727,-0.511 -23.455,-3.442 -48.592,-36.688 -42.912,-55.178 5.682,-18.49 6.18,-57.593 50.654,-66.805 1.488,-0.308 2.898,-0.457 4.239,-0.457 m 0,-6 c -1.758,0 -3.594,0.195 -5.456,0.581 -17.903,3.708 -31.431,12.545 -40.205,26.263 -7.383,11.541 -10.238,24.409 -12.533,34.748 -0.815,3.675 -1.586,7.147 -2.435,9.907 -2.806,9.134 -0.146,20.819 7.49,32.904 10.179,16.11 25.992,27.875 40.286,29.973 2.597,0.381 5.152,0.575 7.598,0.575 21.646,0 29.632,-14.744 29.961,-15.372 l 0.464,-0.883 0.152,-0.985 c 0.132,-0.851 3.241,-21.108 3.961,-44.553 0.997,-32.521 -3.146,-54.436 -12.312,-65.134 -4.497,-5.249 -10.366,-8.024 -16.971,-8.024 z" />
			</g>
			<path
   style="fill:#70391b"
   id="path62"
   d="m 333.673,327.505 c 0,0 7.363,-45.665 2.494,-80.175 -1.242,-8.803 -25.561,-14.082 -40.918,1.903 -18.971,19.745 -29.168,63.323 -24.029,69.618 8.416,10.308 19.938,18.666 31.078,20.302 23.455,3.445 31.375,-11.648 31.375,-11.648 z" />
			<path
   style="fill:#231f20"
   id="path64"
   d="m 333.673,327.505 c 0,-0.002 6.281,-38.958 3.402,-72.101 -0.238,-2.741 -23.908,-11.4 -39.266,4.586 -18.969,19.745 -26.549,58.264 -21.408,64.561 8.416,10.306 14.756,12.967 25.896,14.603 23.456,3.444 31.376,-11.649 31.376,-11.649 z" />
			<path
   style="fill:#ffffff"
   id="path66"
   d="m 284.394,279.48 c 4.471,10.192 13.002,15.677 19.465,7.389 4.066,-5.205 1.699,-13.996 -2.771,-24.191 -4.467,-10.189 -6.09,-21.032 -12.141,-18.381 -6.049,2.652 -9.018,24.992 -4.553,35.183 z" />
		</g>
		<path
   style="fill:#ed97a1"
   id="path70"
   d="m 397.906,345.021 c 14.174,-0.109 28.887,8.63 37.965,8.332 5.549,-0.181 10.639,-4.35 16.822,-8.324 6.287,-4.07 5.98,3.709 4.793,8.24 -1.84,7.01 -11.887,22.084 -19.746,25.1 -1.541,0.592 -21.324,30.295 -22.002,30.215 -0.779,-0.094 8.02,-27.775 6.619,-28.346 -13.59,-5.547 -37.781,-28.943 -37.781,-28.943 0,0 6.367,-6.222 13.33,-6.274 z" />
	</g>
</g>
</svg>