<?xml version="1.0" encoding="UTF-8" standalone="no"?>
<svg
   xmlns:dc="http://purl.org/dc/elements/1.1/"
   xmlns:cc="http://creativecommons.org/ns#"
   xmlns:rdf="http://www.w3.org/1999/02/22-rdf-syntax-ns#"
   xmlns:svg="http://www.w3.org/2000/svg"
   xmlns="http://www.w3.org/2000/svg"
   id="svg4831"
   version="1.1"
   viewBox="0 0 72.945251 44.674427"
   height="44.674427mm"
   width="72.945251mm">
  <defs
     id="defs4825" />
  <metadata
     id="metadata4828">
    <rdf:RDF>
      <cc:Work
         rdf:about="">
        <dc:format>image/svg+xml</dc:format>
        <dc:type
           rdf:resource="http://purl.org/dc/dcmitype/StillImage" />
        <dc:title></dc:title>
      </cc:Work>
    </rdf:RDF>
  </metadata>
  <g
     transform="translate(-11.152374,-56.948502)"
     id="layer1">
    <path
       id="path200"
       d="m 81.416976,81.424444 c -0.828146,-3.615796 -8.20711,-5.104077 -17.292637,-3.789891 3.134783,-5.520003 4.010289,-10.496021 1.80631,-12.240155 -2.12725,-1.68275 -6.523038,0.116152 -11.007725,4.125913 0.400844,-6.582569 -1.299633,-11.72898 -4.523052,-12.479073 -3.661304,-0.851959 -8.062913,4.251589 -10.529888,11.795125 -6.488112,-4.064265 -12.850548,-5.1435 -15.107973,-2.255309 -1.570566,2.009246 -0.797718,5.482696 1.672167,9.199563 -8.850577,1.22899 -15.281804,4.936861 -15.281804,9.321007 0,5.387181 9.709679,9.753864 21.687367,9.753864 4.326731,0 8.353954,-0.572029 11.737975,-1.553897 3.772429,1.791493 10.948458,1.980141 18.793089,0.18362 10.919619,-2.501106 18.998936,-7.900723 18.046171,-12.060767 z"
       style="fill:#6fc067;stroke-width:0.26458332" />
    <path
       id="path202"
       d="m 84.02762,89.402691 c -0.760148,-3.318405 -7.531894,-4.684184 -15.869444,-3.478213 2.876815,-5.065713 3.680354,-9.632157 1.657879,-11.232621 -2.091531,-1.65444 -6.572779,0.358246 -10.983648,4.605073 -0.4953,-4.547923 -2.211916,-7.82955 -4.591579,-8.09625 -3.236119,-0.362744 -6.511131,4.977341 -7.481094,12.055475 -0.01058,-0.0082 -0.02064,-0.01667 -0.03122,-0.02514 -6.861705,-5.362839 -14.379311,-7.208573 -16.791252,-4.122737 -2.412207,3.0861 1.195387,9.935369 8.056827,15.297944 3.998912,3.125258 8.218752,5.053542 11.522868,5.509683 3.210719,1.992575 10.225352,2.323045 17.950657,0.554035 10.01977,-2.294464 17.434189,-7.249845 16.560006,-11.067253 z"
       style="fill:#81b056;stroke-width:0.26458332" />
  </g>
</svg>
