<?xml version="1.0" encoding="UTF-8" standalone="no"?>
<svg
   xmlns:dc="http://purl.org/dc/elements/1.1/"
   xmlns:cc="http://creativecommons.org/ns#"
   xmlns:rdf="http://www.w3.org/1999/02/22-rdf-syntax-ns#"
   xmlns:svg="http://www.w3.org/2000/svg"
   xmlns="http://www.w3.org/2000/svg"
   id="svg4760"
   version="1.1"
   viewBox="0 0 70.340302 40.21106"
   height="40.21106mm"
   width="70.340302mm">
  <defs
     id="defs4754" />
  <metadata
     id="metadata4757">
    <rdf:RDF>
      <cc:Work
         rdf:about="">
        <dc:format>image/svg+xml</dc:format>
        <dc:type
           rdf:resource="http://purl.org/dc/dcmitype/StillImage" />
        <dc:title></dc:title>
      </cc:Work>
    </rdf:RDF>
  </metadata>
  <g
     transform="translate(-70.663181,-141.57902)"
     id="layer1">
    <path
       id="path204"
       d="m 140.92725,168.35952 c -0.82814,-3.61579 -8.20737,-5.10407 -17.29264,-3.78989 3.13479,-5.52 4.01029,-10.49602 1.80632,-12.24015 -2.87417,-2.27383 -9.89039,1.80499 -15.67101,9.11172 -0.47122,0.59558 -0.91705,1.19407 -1.3417,1.79229 -0.23098,-2.37199 -0.77338,-4.95671 -1.64915,-7.59645 -2.98794,-9.00669 -8.693939,-15.2191 -12.744719,-13.87528 -3.3729,1.11892 -4.53231,7.12417 -3.10224,14.30152 -4.77255,-2.01507 -8.92624,-2.13598 -10.65979,0.0818 -1.96586,2.51513 -0.26168,7.32419 3.85021,12.03351 -7.81843,0.92313 -13.45935,3.54039 -13.45935,6.62702 0,3.85762 8.80507,6.98447 19.66648,6.98447 5.10196,0 9.749629,-0.69003 13.244509,-1.82166 3.60574,2.03597 11.08895,2.33336 19.30771,0.45138 10.91856,-2.50058 18.99761,-7.90019 18.04537,-12.06024 z"
       style="fill:#6fc067;stroke-width:0.26458332" />
  </g>
</svg>
