<?xml version="1.0" encoding="utf-8"?>
<!-- Generator: Adobe Illustrator 16.0.0, SVG Export Plug-In . SVG Version: 6.00 Build 0)  -->
<!DOCTYPE svg PUBLIC "-//W3C//DTD SVG 1.1//EN" "http://www.w3.org/Graphics/SVG/1.1/DTD/svg11.dtd">
<svg version="1.1" id="Layer_1" xmlns="http://www.w3.org/2000/svg" xmlns:xlink="http://www.w3.org/1999/xlink" x="0px" y="0px"
	 width="108.57px" height="273.789px" viewBox="0 0 108.57 273.789" enable-background="new 0 0 108.57 273.789"
	 xml:space="preserve">
<g>
	<g>
		<path fill="#166734" d="M42.511,51.949c13.361,26.044,13.852,52.461,10.846,54.003c-3.006,1.542-24.177-14.266-37.537-40.31
			C2.458,39.599-5.847,15.42,4.973,11.639C15.794,7.857,29.15,25.905,42.511,51.949z"/>
		<path fill="#166734" d="M66.06,51.949c-13.361,26.044-13.852,52.461-10.846,54.003c3.006,1.542,24.177-14.266,37.537-40.31
			c13.361-26.043,21.666-50.222,10.847-54.003C92.776,7.857,79.42,25.905,66.06,51.949z"/>
		<path fill="#166734" d="M38.693,53.063c-0.012,29.271,11.601,53.004,14.979,53.006c3.379,0.001,15.009-23.723,15.021-52.994
			C68.705,23.805,65.067-1.5,53.713,0.069C42.36,1.64,38.705,23.792,38.693,53.063z"/>
	</g>
	<path fill="#CD6733" d="M105.582,144.843c0,28.331-16.195,128.946-51.297,128.946c-35.103,0-51.297-100.615-51.297-128.946
		c0-28.33,22.967-45.787,51.297-45.787S105.582,116.513,105.582,144.843z"/>
	<path fill="#F89939" d="M90.185,154.352c0,28.33-18.189,119.438-35.899,119.438c-28.331,0-51.297-78.875-51.297-128.946
		c0-33.639,29.813-45.787,51.297-45.787S90.185,126.021,90.185,154.352z"/>
	<ellipse fill="#CD6733" cx="79.075" cy="186.422" rx="12.395" ry="5.334"/>
	<ellipse fill="#CD6733" cx="51.088" cy="221.496" rx="12.395" ry="5.334"/>
	<ellipse fill="#CD6733" cx="84.587" cy="130.683" rx="12.395" ry="5.334"/>
	
		<ellipse transform="matrix(0.9998 0.0211 -0.0211 0.9998 3.2691 -0.6862)" fill="#CD6733" cx="34.192" cy="154.755" rx="12.395" ry="5.335"/>
</g>
</svg>
