<?xml version="1.0" encoding="UTF-8" standalone="no"?>
<svg
   xmlns:dc="http://purl.org/dc/elements/1.1/"
   xmlns:cc="http://creativecommons.org/ns#"
   xmlns:rdf="http://www.w3.org/1999/02/22-rdf-syntax-ns#"
   xmlns:svg="http://www.w3.org/2000/svg"
   xmlns="http://www.w3.org/2000/svg"
   id="svg4875"
   version="1.1"
   viewBox="0 0 103.53384 68.077812"
   height="68.077812mm"
   width="103.53384mm">
  <defs
     id="defs4869" />
  <metadata
     id="metadata4872">
    <rdf:RDF>
      <cc:Work
         rdf:about="">
        <dc:format>image/svg+xml</dc:format>
        <dc:type
           rdf:resource="http://purl.org/dc/dcmitype/StillImage" />
        <dc:title></dc:title>
      </cc:Work>
    </rdf:RDF>
  </metadata>
  <g
     transform="translate(-66.917604,-45.246804)"
     id="layer1">
    <path
       id="path158"
       d="m 170.45144,72.511587 c 0,-8.919368 -10.68228,-16.149902 -23.85933,-16.149902 -1.24963,0 -2.4765,0.06535 -3.67427,0.190765 -3.81185,-6.719888 -11.41783,-11.305646 -20.18506,-11.305646 -6.2484,0 -11.90784,2.329921 -16.02475,6.100498 -3.20675,-0.855398 -6.67676,-1.32424 -10.300497,-1.32424 -16.286956,0 -29.489929,9.446948 -29.489929,21.100521 0,7.428971 5.366279,13.960211 13.476023,17.720204 -0.191558,1.101196 -0.294746,2.229379 -0.294746,3.380317 0,11.653306 10.203392,21.100516 22.790419,21.100516 7.27921,0 13.75595,-3.16335 17.92843,-8.08169 4.34287,3.06758 10.45607,4.97787 17.22834,4.97787 13.17704,0 23.85933,-7.2308 23.85933,-16.150169 0,-2.81014 -1.06124,-5.452004 -2.92576,-7.753615 6.87811,-2.833687 11.4718,-7.95655 11.4718,-13.805429 z"
       style="opacity:0.4;fill:#ffffff;stroke-width:0.26458332;fill-opacity:0.46666667" />
  </g>
</svg>
