<?xml version="1.0" encoding="UTF-8" standalone="no"?>
<!-- Created with Inkscape (http://www.inkscape.org/) -->

<svg
   xmlns:dc="http://purl.org/dc/elements/1.1/"
   xmlns:cc="http://creativecommons.org/ns#"
   xmlns:rdf="http://www.w3.org/1999/02/22-rdf-syntax-ns#"
   xmlns:svg="http://www.w3.org/2000/svg"
   xmlns="http://www.w3.org/2000/svg"
   xmlns:sodipodi="http://sodipodi.sourceforge.net/DTD/sodipodi-0.dtd"
   xmlns:inkscape="http://www.inkscape.org/namespaces/inkscape"
   width="111.9841mm"
   height="66.229179mm"
   viewBox="0 0 111.9841 66.229179"
   version="1.1"
   id="svg5460"
   inkscape:version="0.92.4 5da689c313, 2019-01-14"
   sodipodi:docname="cloud2.svg">
  <defs
     id="defs5454" />
  <sodipodi:namedview
     id="base"
     pagecolor="#ffffff"
     bordercolor="#666666"
     borderopacity="1.0"
     inkscape:pageopacity="0.0"
     inkscape:pageshadow="2"
     inkscape:zoom="0.35"
     inkscape:cx="123.05207"
     inkscape:cy="-143.41392"
     inkscape:document-units="mm"
     inkscape:current-layer="layer1"
     showgrid="false"
     inkscape:window-width="1440"
     inkscape:window-height="873"
     inkscape:window-x="3840"
     inkscape:window-y="180"
     inkscape:window-maximized="0"
     fit-margin-top="0"
     fit-margin-left="0"
     fit-margin-right="0"
     fit-margin-bottom="0" />
  <metadata
     id="metadata5457">
    <rdf:RDF>
      <cc:Work
         rdf:about="">
        <dc:format>image/svg+xml</dc:format>
        <dc:type
           rdf:resource="http://purl.org/dc/dcmitype/StillImage" />
        <dc:title></dc:title>
      </cc:Work>
    </rdf:RDF>
  </metadata>
  <g
     inkscape:label="Layer 1"
     inkscape:groupmode="layer"
     id="layer1"
     transform="translate(-73.275807,-44.659221)">
    <path
       d="m 185.25991,72.969373 c 0,-7.691437 -8.04915,-14.215004 -19.20267,-16.50365 -2.1799,-6.750579 -11.08101,-11.806502 -21.73605,-11.806502 -7.12734,0 -13.46676,2.26404 -17.53949,5.78194 -3.14087,-1.570038 -6.73523,-2.462213 -10.55529,-2.462213 -8.55742,0 -15.98162,4.474369 -19.705105,11.031802 -13.120688,1.242748 -23.245498,9.27735 -23.245498,19.005021 0,7.440612 5.924021,13.891154 14.580923,17.069329 0.104775,8.73998 10.536502,15.8033 23.39155,15.8033 6.5151,0 12.40737,-1.81478 16.6489,-4.74186 3.85207,1.70735 8.45688,2.70113 13.40512,2.70113 13.53317,0 24.50412,-7.42606 24.50412,-16.586468 0,-0.910696 -0.11007,-1.803664 -0.31882,-2.674408 11.44852,-2.181225 19.77231,-8.795808 19.77231,-16.617421 z"
       id="path160"
       inkscape:connector-curvature="0"
       style="opacity:0.4;fill:#ffffff;stroke-width:0.26458332" />
  </g>
</svg>
