<?xml version="1.0" encoding="UTF-8"?>
<!-- Generator: Adobe Illustrator 16.0.0, SVG Export Plug-In . SVG Version: 6.00 Build 0)  -->
<!DOCTYPE svg PUBLIC "-//W3C//DTD SVG 1.1//EN" "http://www.w3.org/Graphics/SVG/1.1/DTD/svg11.dtd">
<svg version="1.1" id="Layer_1" xmlns="http://www.w3.org/2000/svg" xmlns:xlink="http://www.w3.org/1999/xlink" x="0px" y="0px" width="761.847px" height="683.863px" viewBox="0 0 761.847 683.863" enable-background="new 0 0 761.847 683.863" xml:space="preserve"><style xmlns="" type="text/css" id="night-mode-pro-style"/><link xmlns="" type="text/css" rel="stylesheet" id="night-mode-pro-link"/>
<g>
	<path fill="#F89939" d="M380.318,668.121c-13.812,0-27.829-5.021-37.98-9.764c-57.643-3.986-104.371-16.941-138.988-38.553   c-46.234-28.861-70.671-72.767-70.671-126.967c0-47.894,17.088-100.483,46.341-146.24c-11.327-5.466-23.341-12.145-35.682-20.303   c-37.368-24.703-69.408-57.357-95.23-97.054c-26.186-40.256-33.815-90.892-23.323-154.805c2.382-14.526,8.008-26.441,16.716-35.413   C51.757,28.457,65.835,22.64,81.142,22.64c14.978,0,30.56,5.141,50.523,16.673c15.249,8.806,59.899,21.864,86.112,28.813   l1.281-1.038l20.32,6.445c41.939,13.3,75.041,48.111,95.725,100.668c6.886,17.497,11.852,35.542,15.256,52.302   c10.481-1.6,21.076-2.403,31.737-2.403c11.709,0,23.335,0.971,34.818,2.9c3.391-16.825,8.362-34.969,15.277-52.585   C452.87,121.737,486,86.854,527.998,73.533l20.261-6.424l1.282,1.032c26.205-6.944,70.908-20.016,86.176-28.83   c19.959-11.53,35.541-16.671,50.519-16.671c15.306,0,29.382,5.817,39.638,16.383c8.711,8.972,14.335,20.887,16.721,35.413   c10.49,63.913,2.86,114.548-23.324,154.804c-41.666,64.048-92.758,99.259-133.42,118.451c28.83,45.515,45.66,97.685,45.66,145.146   c0,54.852-24.984,99.092-72.252,127.946c-35.279,21.531-82.852,34.248-141.49,37.844   C407.05,663.605,393.654,668.121,380.318,668.121z"/>
	<g>
		<path fill-rule="evenodd" clip-rule="evenodd" fill="#CDCCCC" stroke="#BCBCBC" stroke-width="6" stroke-miterlimit="10" d="    M703.545,80.845c-4.091-24.925-22.16-22.217-48.041-7.268c-29.101,16.804-115.263,37.903-115.543,37.674    c-70.94,22.499-88.411,129.327-89.432,165.502c-0.438,15.644,8.389,43.353,10.477,44.648c5.226,3.249,15.73,8.895,23.379,10.539    c20.195,4.333,128.389-11.565,201.715-124.278C702.111,183.045,714.07,144.97,703.545,80.845z"/>
		<path fill-rule="evenodd" clip-rule="evenodd" fill="#CDCCCC" stroke="#BCBCBC" stroke-width="6" stroke-miterlimit="10" d="    M63.833,80.845c4.089-24.925,22.16-22.217,48.04-7.268c29.102,16.804,115.262,37.903,115.544,37.674    c70.94,22.499,88.411,129.327,89.431,165.502c0.438,15.644-8.391,43.353-10.476,44.648c-5.228,3.249-15.732,8.895-23.378,10.539    c-20.198,4.333-128.394-11.565-201.716-124.278C65.265,183.045,53.307,144.97,63.833,80.845z"/>
		<path fill="#B7B7B8" stroke="#BCBCBC" stroke-width="6" stroke-miterlimit="10" d="M591.938,492.837    c0,93.795-93.95,127.28-209.843,127.28c-115.896,0-209.847-33.484-209.847-127.28c0-93.799,84.73-229.166,209.847-229.166    C507.207,263.671,591.938,399.038,591.938,492.837z"/>
		<path fill="#E5E5E5" d="M293.285,548.097c0-27.887,15.84-52.4,39.767-66.472c13.53-7.96,29.647,4.738,46.946,4.738    c16.821,0,32.523-12.951,45.819-5.393c24.554,13.96,40.894,38.804,40.894,67.126c0,27.85-15.8,46.375-39.67,60.458    c-13.551,7.99-29.703-4.105-47.043-4.105c-17.363,0-33.533,12.086-47.095,4.072C309.061,594.437,293.285,575.925,293.285,548.097z    "/>
		<g>
			<g>
				<path fill="#D15282" d="M380.318,616.716c-9.475,0-48.345-19.604-48.345-43.639c0-1.691,0.115-3.389,0.353-5.191l0.239-1.815      l1.803-0.32c9.639-1.71,18.781-5.734,26.436-11.636l4.026-3.104v12.492c0,2.215,0.508,9.444,7.039,9.444      c2.996,0,5.013-1.442,6.166-4.408l2.329-5.989l2.331,5.988c1.155,2.967,3.169,4.409,6.161,4.409      c6.537,0,7.045-7.229,7.045-9.444v-12.491l4.026,3.102c7.635,5.884,16.745,9.902,26.346,11.62l1.798,0.321l0.24,1.811      c0.238,1.801,0.354,3.505,0.354,5.212C428.665,597.113,389.794,616.716,380.318,616.716z"/>
				<path fill="#989898" d="M398.4,556.095c7.824,6.029,17.183,10.266,27.432,12.1c0.213,1.605,0.333,3.23,0.333,4.883      c0,22.16-37.14,41.139-45.847,41.139c-8.703,0-45.845-18.979-45.845-41.139c0-1.648,0.121-3.27,0.331-4.865      c10.289-1.826,19.68-6.07,27.525-12.118v7.408c0,5.686,2.549,11.944,9.539,11.944c4.524,0,7.18-2.617,8.496-6.002      c1.317,3.385,3.975,6.002,8.49,6.002c7.001,0,9.545-6.258,9.545-11.944V556.095 M367.33,545.927l-8.053,6.208      c-7.338,5.657-16.103,9.514-25.347,11.155l-3.605,0.64l-0.478,3.631c-0.248,1.885-0.374,3.741-0.374,5.518      c0,7.842,3.769,19.921,21.726,32.929c10.396,7.531,22.914,13.21,29.119,13.21c6.206,0,18.726-5.679,29.122-13.21      c17.956-13.008,21.725-25.087,21.725-32.929c0-1.793-0.127-3.656-0.376-5.54l-0.48-3.621l-3.596-0.644      c-9.207-1.647-17.942-5.499-25.261-11.139l-8.052-6.205v10.166v7.408c0,2.137-0.479,4.083-1.312,5.338      c-0.747,1.125-1.714,1.605-3.232,1.605c-1.42,0-2.867-0.341-3.831-2.815l-4.662-11.976l-4.658,11.977      c-0.962,2.474-2.412,2.814-3.836,2.814c-1.514,0-2.478-0.48-3.226-1.605c-0.835-1.257-1.313-3.203-1.313-5.338v-7.408V545.927      L367.33,545.927z"/>
			</g>
			<path fill="#E5E5E5" d="M380.318,620.832c-15.112,0-57.834-23.064-58.379-51.621c-2.107-0.045-4.188-0.195-6.24-0.438     c-0.029,0.695-0.061,1.395-0.061,2.098c0,32.105,46.45,57.68,64.68,57.68c18.236,0,64.68-25.574,64.68-57.68     c0-0.699-0.029-1.393-0.059-2.092c-2.051,0.244-4.136,0.391-6.244,0.436C438.153,597.771,395.433,620.832,380.318,620.832z"/>
			<path fill="#E5E5E5" d="M380.318,620.832c15.114,0,57.835-23.061,58.377-51.617c-0.471,0.012-0.939,0.031-1.415,0.031     c-3.914,0-7.731-0.385-11.448-1.051c0.213,1.605,0.333,3.23,0.333,4.883c0,22.16-37.14,41.139-45.847,41.139     c-8.703,0-45.845-18.979-45.845-41.139c0-1.648,0.121-3.27,0.331-4.865c-3.688,0.656-7.472,1.033-11.357,1.033     c-0.503,0-1.006-0.023-1.508-0.035C322.484,597.767,365.207,620.832,380.318,620.832z"/>
			<g>
				<path fill-rule="evenodd" clip-rule="evenodd" fill="#FFFFFF" d="M388.855,577.947c-3.488,0-6.395-1.276-8.49-3.667      c-2.096,2.391-5.004,3.667-8.496,3.667c-8.316,0-12.039-7.254-12.039-14.444v-8.638l0.974-0.75      c4.469-3.445,10.556-10.642,14.193-14.941c1.718-2.031,2.697-3.188,3.394-3.846l0.397-0.833c0,0,1.495-0.015,1.551-0.015h1.579      l0.408,0.836c0.699,0.656,1.683,1.819,3.418,3.87c3.635,4.296,9.718,11.486,14.183,14.931l0.973,0.751v8.637      C400.9,570.693,397.176,577.947,388.855,577.947z"/>
				<path fill="#989898" d="M380.391,536.979c0.633,0,10.96,13.676,18.01,19.116v7.408c0,5.686-2.544,11.944-9.545,11.944      c-4.515,0-7.173-2.617-8.49-6.002c-1.316,3.385-3.972,6.002-8.496,6.002c-6.99,0-9.539-6.258-9.539-11.944v-7.408      c7.051-5.436,17.379-19.117,18.01-19.116c0.012,0,0.021,0.005,0.025,0.015C380.37,536.984,380.379,536.979,380.391,536.979       M380.391,531.979h-3.155l-0.89,1.842c-0.299,0.301-0.572,0.609-0.83,0.9c-0.631,0.713-1.465,1.699-2.431,2.841      c-3.572,4.223-9.551,11.291-13.808,14.573l-1.947,1.501v2.458v7.408c0,10.134,5.843,16.944,14.539,16.944      c3.268,0,6.164-0.965,8.496-2.762c2.332,1.797,5.225,2.762,8.49,2.762c8.699,0,14.545-6.81,14.545-16.944v-7.408v-2.458      l-1.945-1.501c-4.255-3.282-10.23-10.346-13.802-14.566c-0.968-1.144-1.804-2.132-2.437-2.846      C384.134,533.5,382.786,531.979,380.391,531.979L380.391,531.979z"/>
			</g>
		</g>
		<path fill-rule="evenodd" clip-rule="evenodd" fill="#ED97A1" d="M425.488,477.743c-6.554-4.826-35.142,5.684-45.49,5.668    c-10.231-0.012-38.991-10.434-45.486-5.668c-7.631,5.595,6.326,42.31,38.823,48.901c0,0.242,3.95,11.587,6.666,11.587    s6.669-11.345,6.669-11.587C419.166,520.051,433.103,483.342,425.488,477.743z"/>
		<g>
			<path fill-rule="evenodd" clip-rule="evenodd" fill="#676767" d="M300.873,329.95c-10.347-0.807-40.022,14.546-35.114,23.694     c0,0,26.092-6.44,51.347-5.023C324.208,349.019,307.967,330.501,300.873,329.95z"/>
			<path fill-rule="evenodd" clip-rule="evenodd" fill="#676767" d="M460.361,329.95c-7.094,0.551-23.337,19.069-16.23,18.67     c25.254-1.417,51.348,5.023,51.348,5.023C500.385,344.496,470.711,329.143,460.361,329.95z"/>
		</g>
		<g>
			<path fill="#676767" d="M271.18,418.417c-20.823,0-52.706,29.383-50.194,37.691c1.779,5.883,28.225-15.658,41.575-15.146     c34.479,1.325,57.683,23.044,57.683,19.227C320.244,443.612,306.322,418.417,271.18,418.417z"/>
			<path fill="#676767" d="M490.176,418.417c-35.143,0-49.064,25.195-49.064,41.772c0,3.817,23.205-17.902,57.686-19.227     c13.35-0.513,39.792,21.029,41.572,15.146C542.881,447.8,511,418.417,490.176,418.417z"/>
		</g>
	</g>
</g>
</svg>